<svg width="101" height="140" viewBox="0 0 101 140" fill="none" xmlns="http://www.w3.org/2000/svg">
<path d="M72.6552 105.23C72.6552 110.17 62.5278 114.177 50.0395 114.177C37.5462 114.177 27.4238 110.17 27.4238 105.23C27.4238 100.291 37.5512 96.2834 50.0395 96.2834C62.5278 96.2834 72.6552 100.291 72.6552 105.23Z" fill="#8A5D33"/>
<path d="M68.4048 140C56.2002 140 43.9957 140 31.7911 140C29.1111 127.375 26.431 114.755 23.751 102.13C41.3156 102.13 58.8803 102.13 76.4399 102.13C73.77 114.755 71.0849 127.375 68.4048 140Z" fill="#E08D53"/>
<path d="M50.3486 102.13H23.7559C26.4359 114.755 29.1159 127.375 31.796 140H50.3536V102.13H50.3486Z" fill="#CC7C3A"/>
<path d="M23.7559 102.13C25.8229 111.857 27.8848 121.589 29.9519 131.316C39.4004 116.857 57.3906 108.767 74.9553 109.162C75.4518 106.816 75.9533 104.476 76.4498 102.13C58.8801 102.13 41.3205 102.13 23.7559 102.13Z" fill="#CECECE"/>
<path d="M77.3414 101.471H22.7324V108.377H77.3414V101.471Z" fill="#E08D53"/>
<path d="M50.2624 101.471H22.7324V108.377H50.2624V101.471Z" fill="#CC7C3A"/>
<path d="M65.598 53.9499C61.7781 52.3996 59.0373 59.7963 60.2278 62.6588C60.2734 62.7753 60.3139 62.8868 60.3494 62.9982C60.3595 63.0286 60.3697 63.059 60.3747 63.0894C60.4001 63.1857 60.4254 63.2768 60.4457 63.3731C60.4507 63.3934 60.4558 63.4136 60.4609 63.4339C60.4811 63.5454 60.4963 63.6568 60.5115 63.7632C60.5115 63.7936 60.5166 63.8189 60.5166 63.8493C60.5217 63.9355 60.5318 64.0216 60.5318 64.1077C60.5318 64.1381 60.5318 64.1634 60.5318 64.1938C60.5318 64.3002 60.5318 64.4066 60.5217 64.513C60.5217 64.5333 60.5166 64.5535 60.5166 64.5738C60.5115 64.6599 60.5014 64.7461 60.4862 64.8322C60.4811 64.8626 60.4811 64.893 60.471 64.9234C60.4558 65.0247 60.4406 65.121 60.4153 65.2172C60.4153 65.2223 60.4153 65.2274 60.4102 65.2274C60.3899 65.3287 60.3646 65.4249 60.3342 65.5212C60.3291 65.5465 60.319 65.5769 60.3089 65.6023C60.2836 65.6833 60.2582 65.7593 60.2329 65.8353C60.2278 65.8505 60.2228 65.8708 60.2126 65.886C60.1772 65.9772 60.1468 66.0683 60.1062 66.1595C60.0961 66.1798 60.086 66.2001 60.0809 66.2254C60.0505 66.2963 60.0201 66.3673 59.9846 66.4382C59.9745 66.4585 59.9644 66.4787 59.9593 66.499C59.9188 66.5851 59.8783 66.6662 59.8377 66.7472C59.8327 66.7574 59.8276 66.7675 59.8225 66.7776C59.782 66.8486 59.7465 66.9195 59.706 66.9853C59.6959 67.0005 59.6857 67.0157 59.6756 67.036C59.5895 67.188 59.4983 67.3248 59.4121 67.4514C59.4071 67.4616 59.397 67.4717 59.3919 67.4818C59.3514 67.5426 59.3108 67.6034 59.2703 67.6541C58.9917 68.0442 58.7738 68.2671 58.7738 68.2671C57.183 69.1436 54.9539 67.7909 55.5517 63.7328C56.1495 59.6748 53.6417 56.5742 49.4671 57.2278C45.2925 57.8813 43.9804 62.7804 42.9063 65.5212C41.8323 68.2671 43.8639 76.976 47.2025 81.87C50.5412 86.764 56.3876 89.3883 56.5092 90.817C56.6257 92.2507 58.2013 104.334 62.9585 107.916C61.2715 101.117 70.3502 94.2772 73.2126 81.3937C76.1004 68.5103 69.418 55.5002 65.598 53.9499Z" fill="#2C5900"/>
<path d="M57.4005 119.254C56.4278 86.0851 48.3877 71.9908 41.8168 66.0076C36.3148 61.0021 31.3702 61.2554 31.3195 61.2554L31.1929 59.4924C31.4209 59.4772 36.8519 59.1479 42.9212 64.6245C49.7809 70.8154 58.1655 85.3099 59.1636 119.198L57.4005 119.254Z" fill="#528421"/>
<path d="M54.5536 115.89C42.9266 58.2562 56.4129 49.983 56.9905 49.6588L57.8619 51.1938C57.8315 51.2141 54.6245 53.2254 52.8209 62.1014C51.144 70.3442 50.3841 86.3079 56.2812 115.54L54.5536 115.89Z" fill="#528421"/>
<path d="M50.2015 99.313C37.7892 30.9339 52.1317 21.1561 52.7447 20.7711L53.687 22.2656C53.6516 22.2909 50.1863 24.7025 48.2358 35.3213C46.4322 45.1498 45.6115 64.1736 51.9341 98.9989L50.2015 99.313Z" fill="#528421"/>
<path d="M46.4474 99.156L44.6792 99.1458C44.8667 60.0091 40.7377 39.2882 37.242 28.8061C33.4525 17.4324 29.5819 15.3248 29.5464 15.3046L30.3215 13.7188C30.9953 14.0329 46.8121 22.4632 46.4474 99.156Z" fill="#528421"/>
<path d="M49.396 38.8423C49.396 38.8423 56.6559 46.3049 56.6559 51.9842C63.2268 56.5843 75.0413 63.7581 77.3262 68.1151C79.6111 72.4771 85.0877 79.2456 91.228 79.5395C97.3682 79.8333 100.839 82.336 100.839 82.336C100.839 82.336 98.5132 77.7764 96.7603 74.2402C95.0125 70.709 94.6223 66.5851 90.8429 65.1868C87.0635 63.7936 84.9509 58.2765 81.9618 54.264C78.9727 50.2515 74.7779 47.6019 69.0784 46.1327C63.3788 44.6635 63.9462 40.5497 60.4252 39.8809C56.8991 39.2172 49.396 38.8423 49.396 38.8423Z" fill="#377705"/>
<path d="M56.352 51.2344C56.352 51.2344 61.6513 38.5941 59.0017 32.4437C63.8551 32.1802 67.8423 43.6603 70.117 47.6323C72.3917 51.6042 77.4428 53.5192 76.0952 57.785C74.7476 62.0558 78.3547 68.5305 79.5655 71.322C74.8945 69.26 73.1415 64.3914 69.4027 61.4327C65.6638 58.474 55.8302 52.5769 56.352 51.2344Z" fill="#459B06"/>
<path d="M48.9095 84.4342C48.9095 84.4342 52.1468 81.0499 50.6776 77.5187C49.2033 73.9876 52.5926 64.8633 57.2992 66.7783C62.0108 68.6933 70.2485 84.7331 66.7173 100.626C63.1861 116.519 55.9414 124.908 58.0186 133.293C52.1519 128.88 46.2649 114.016 46.118 112.248C45.9711 110.48 38.7618 107.242 34.6379 101.214C30.519 95.1797 28.0163 84.4392 29.3386 81.055C30.6609 77.6707 32.2821 71.6318 37.4294 70.8262C42.5817 70.0207 45.6722 73.8457 44.9325 78.8512C44.1979 83.8465 46.9438 85.5133 48.9095 84.4342Z" fill="#377705"/>
<path d="M57.2943 66.7725C52.5877 64.8575 49.1984 73.9818 50.6727 77.513C51.7214 80.036 50.3738 82.4779 49.5176 83.6735C56.053 95.4019 52.2078 110.18 53.6162 123.094C54.2039 128.495 57.6945 133.044 58.0137 133.282C55.9365 124.892 63.1812 116.508 66.7124 100.615C70.2436 84.7273 62.0059 68.6876 57.2943 66.7725Z" fill="#459B06"/>
<path d="M72.4171 88.2591C72.4171 88.2591 73.1467 84.7127 70.7351 83.0054C68.3185 81.298 66.7885 73.9317 70.6591 73.2528C74.5297 72.574 86.5114 79.692 90.7265 91.5521C94.9366 103.412 93.6396 111.878 98.4424 116.519C92.7834 116.037 82.8282 108.722 82.0075 107.622C81.1868 106.528 75.1377 107.369 69.96 105.109C64.7823 102.85 58.7332 96.8413 58.2114 94.0802C57.6896 91.3191 56.271 86.6986 59.3108 84.0591C62.3505 81.4146 65.9475 82.6558 67.5181 86.2326C69.0937 89.8093 71.5761 89.7739 72.4171 88.2591Z" fill="#377705"/>
<path d="M70.6593 73.2522C66.7887 73.9311 68.3187 81.2974 70.7353 83.0047C72.4578 84.2257 72.5794 86.3789 72.5085 87.5137C81.6024 92.5141 85.1538 103.771 91.3802 111.649C93.9843 114.942 98.1386 116.493 98.4426 116.518C93.6398 111.877 94.9368 103.412 90.7267 91.5515C86.5116 79.6914 74.5299 72.5683 70.6593 73.2522Z" fill="#459B06"/>
<path d="M31.5983 59.2191C31.5983 59.2191 35.1294 55.2623 33.0675 47.6528C31.0055 40.0433 34.6887 34.4705 39.9829 36.8871C45.2822 39.3037 42.4856 50.9864 41.1583 54.933C39.836 58.8746 45.571 70.1875 40.2768 73.8757C34.9775 77.5639 31.2994 80.3554 27.6213 81.9057C23.9432 83.4509 19.9713 88.1625 17.1747 89.7786C14.3781 91.3998 7.02194 103.463 6.28227 109.35C3.04494 99.4906 -1.80851 86.06 0.68915 76.8091C3.19187 67.5581 1.42375 65.8204 4.51416 59.9182C7.60456 54.016 4.36724 50.9611 10.1073 47.7086C15.8473 44.456 18.6439 37.495 22.6158 37.3684C26.5878 37.2417 33.0624 36.0461 31.4463 42.3079C29.8302 48.5749 27.3274 59.9993 31.5983 59.2191Z" fill="#377705"/>
<path d="M41.1634 54.9327C42.4908 50.9912 45.2823 39.3033 39.9881 36.8867C34.6888 34.4702 31.0107 40.038 33.0727 47.6525C35.1346 55.262 31.6034 59.2187 31.6034 59.2187C31.0968 59.3099 30.6865 59.2289 30.3572 59.011C12.8533 69.0523 8.26833 89.7023 6.04932 108.625C6.13038 108.868 6.21144 109.111 6.28743 109.354C7.02204 103.467 14.3833 91.3995 17.1799 89.7834C19.9764 88.1622 23.9483 83.4557 27.6264 81.9105C31.3045 80.3602 34.9826 77.5737 40.2819 73.8805C45.5761 70.1821 39.8361 58.8742 41.1634 54.9327Z" fill="#459B06"/>
<path d="M36.5529 104.876C36.5529 104.876 38.4122 102.788 37.328 98.7811C36.2439 94.7737 38.1792 91.8352 40.9707 93.1119C43.7622 94.3836 42.2879 100.539 41.5887 102.616C40.8896 104.693 43.9142 110.651 41.1227 112.597C38.3312 114.542 36.3958 116.011 34.4555 116.827C32.5151 117.643 30.4228 120.125 28.9485 120.976C27.4742 121.827 23.5985 128.186 23.2135 131.286C21.5062 126.093 18.9477 119.016 20.2649 114.142C21.5821 109.268 20.655 108.351 22.2813 105.246C23.9076 102.135 22.2053 100.529 25.2248 98.8115C28.2493 97.0991 29.7236 93.4311 31.816 93.3652C33.9083 93.2994 37.3179 92.6661 36.4668 95.9693C35.6258 99.2725 34.3085 105.291 36.5529 104.876Z" fill="#377705"/>
<path d="M41.594 102.621C42.2932 100.544 43.7674 94.3886 40.9759 93.117C38.1844 91.8454 36.2441 94.7787 37.3333 98.7861C38.4175 102.794 36.5582 104.881 36.5582 104.881C36.2897 104.931 36.0769 104.886 35.9046 104.769C26.6841 110.058 24.2675 120.941 23.0972 130.906C23.1377 131.033 23.1833 131.164 23.2238 131.291C23.6089 128.191 27.4896 121.832 28.9588 120.981C30.4331 120.13 32.5254 117.648 34.4658 116.832C36.4062 116.016 38.3415 114.547 41.133 112.602C43.9194 110.656 40.8949 104.698 41.594 102.621Z" fill="#459B06"/>
<path d="M32.7682 16.9916C32.7682 16.9916 42.5916 18.2886 41.4821 10.0053C40.3726 1.72198 17.3364 -2.89337 14.5854 19.8085C25.032 15.8011 32.7682 16.9916 32.7682 16.9916Z" fill="#F1162A"/>
<path d="M33.8018 16.5002C33.9994 17.0778 33.6954 17.706 33.1179 17.9036C32.5403 18.1011 31.9121 17.7972 31.7145 17.2196L26.2531 1.4636C26.0555 0.886044 26.3595 0.257831 26.9371 0.0602479C27.5146 -0.137336 28.1428 0.166638 28.3404 0.74419L33.8018 16.5002Z" fill="#FBDE16"/>
<path d="M38.9796 22.3973C38.9796 22.3973 35.1141 10.1471 25.0018 12.2445C14.8896 14.342 10.6745 20.5481 12.701 31.2632C14.2817 24.2161 26.4153 12.7968 38.9796 22.3973Z" fill="#BF010D"/>
<path d="M50.1055 28.9328C50.1055 28.9328 40.2821 30.2297 41.3916 21.9464C42.5011 13.6631 65.5373 9.04776 68.2883 31.7496C57.8366 27.7422 50.1055 28.9328 50.1055 28.9328Z" fill="#F1162A"/>
<path d="M49.072 28.4363C48.8744 29.0138 49.1783 29.642 49.7559 29.8396C50.3334 30.0372 50.9617 29.7332 51.1593 29.1557L56.6207 13.3997C56.8182 12.8221 56.5143 12.1939 55.9418 11.9963C55.3693 11.7987 54.736 12.1027 54.5384 12.6803L49.072 28.4363Z" fill="#FBDE16"/>
<path d="M43.8892 34.3384C43.8892 34.3384 47.7547 22.0883 57.8669 24.1857C67.9791 26.2831 72.1943 32.4893 70.1678 43.2044C68.5922 36.1572 56.4585 24.7379 43.8892 34.3384Z" fill="#BF010D"/>
</svg>
