<svg width="165" height="240" viewBox="0 0 165 240" fill="none" xmlns="http://www.w3.org/2000/svg">
<path d="M5.75295 150.361C6.67175 157.294 7.8056 164.195 9.04372 170.966C10.2818 177.736 11.6307 184.363 12.934 190.782C14.2373 197.194 15.5014 203.391 16.5506 209.288C17.5932 215.186 18.4208 220.79 18.7857 225.99C18.9681 228.59 19.0333 231.086 18.9421 233.451C18.8965 234.637 18.8118 235.784 18.6879 236.898C18.5707 237.967 18.4143 239.003 18.2122 239.993H18.903C19.1115 239.023 19.2874 238.019 19.4178 236.983C19.5546 235.856 19.6524 234.683 19.711 233.484C19.8218 231.086 19.7827 228.557 19.6263 225.931C19.307 220.679 18.525 215.036 17.5345 209.112C16.5375 203.189 15.332 196.972 14.0874 190.547C11.5916 177.704 8.97855 163.987 7.26475 150.159C6.39807 143.245 5.74644 136.312 5.38152 129.469C5.0166 122.634 4.92537 115.883 5.13389 109.373C5.36848 102.915 6.44369 96.7115 8.17052 91.0553C9.89736 85.4056 12.2693 80.2968 15.0583 76.0025C17.8408 71.6952 21.0404 68.2155 24.266 65.648C25.0675 65.0094 25.882 64.4229 26.677 63.8886C27.4785 63.3608 28.267 62.8785 29.0425 62.4485C30.5934 61.5883 32.0856 60.9367 33.4671 60.4284C36.2235 59.4184 38.5107 59.0274 40.0681 58.8254C40.4591 58.7667 40.7915 58.7406 41.0847 58.7146C41.3714 58.682 41.6386 58.669 41.8471 58.6494C42.0556 58.6429 42.2186 58.6168 42.3228 58.5582C42.4271 58.5061 42.4792 58.4539 42.4792 58.4539L42.3163 56.1862C42.3163 56.1862 42.2577 56.1406 42.1469 56.108C42.0361 56.0624 41.8732 56.0559 41.6647 56.082C41.4561 56.095 41.1955 56.1146 40.8631 56.1602C40.5373 56.1927 40.1464 56.2318 39.7358 56.297C38.0546 56.5316 35.5784 56.9812 32.6004 58.1086C31.1212 58.669 29.5116 59.3923 27.85 60.3306C27.0224 60.7998 26.1753 61.3276 25.3281 61.9011C24.481 62.4876 23.6208 63.1197 22.7737 63.8104C19.3656 66.5733 16.0293 70.2877 13.1686 74.81C10.3079 79.3259 7.91638 84.6432 6.20258 90.4819C4.49529 96.3271 3.45919 102.707 3.30279 109.334C3.13989 115.909 3.28324 122.699 3.70681 129.58C4.13037 136.455 4.83414 143.427 5.75295 150.361Z" fill="#61863A"/>
<path d="M6.14422 150.791C7.06303 157.724 8.19688 164.632 9.43499 171.396C10.6731 178.166 12.022 184.8 13.3253 191.212C14.6285 197.624 15.8927 203.821 16.9418 209.718C17.9845 215.616 18.812 221.22 19.177 226.42C19.3594 229.02 19.4246 231.522 19.3399 233.888C19.2943 235.074 19.2095 236.22 19.0857 237.335C18.988 238.247 18.8511 239.14 18.6947 240H19.3985C19.5679 239.166 19.7113 238.299 19.8221 237.419C19.9589 236.292 20.0567 235.119 20.1153 233.92C20.2326 231.516 20.187 228.994 20.0306 226.368C19.7113 221.116 18.9293 215.472 17.9388 209.549C16.9484 203.626 15.7363 197.409 14.4917 190.984C11.9959 178.14 9.38285 164.423 7.66905 150.595C6.80237 143.681 6.15073 136.748 5.78582 129.906C5.4209 123.07 5.32967 116.319 5.53819 109.816C5.77278 103.358 6.84798 97.1481 8.57482 91.4984C10.3017 85.8487 12.6736 80.7464 15.4626 76.4456C18.2451 72.1383 21.4447 68.6585 24.6703 66.0911C25.4718 65.4525 26.2863 64.866 27.0813 64.3317C27.8828 63.8038 28.6713 63.3216 29.4468 62.8915C30.9977 62.0314 32.4899 61.3797 33.8714 60.8715C36.6278 59.8614 38.9151 59.4704 40.4725 59.2684C40.8634 59.2098 41.1958 59.1837 41.489 59.1577C41.7757 59.1251 42.0429 59.112 42.2514 59.0925C42.4599 59.086 42.6229 59.0599 42.7271 59.0013C42.8314 58.9491 42.8835 58.897 42.8835 58.897L42.7206 56.6293C42.7206 56.6293 42.662 56.5837 42.5512 56.5511C42.4404 56.5055 42.2775 56.499 42.069 56.525C41.8604 56.5446 41.5998 56.5576 41.2675 56.6032C40.9416 56.6358 40.5507 56.6749 40.1401 56.7401C38.4589 56.9747 35.9827 57.4243 33.0047 58.5516C31.5255 59.112 29.9159 59.8354 28.2543 60.7737C27.4267 61.2429 26.5796 61.7707 25.7324 62.3442C24.8853 62.9306 24.0251 63.5562 23.178 64.2469C19.7699 67.0164 16.4336 70.7242 13.5729 75.2466C10.7122 79.7624 8.32068 85.0798 6.60687 90.925C4.89959 96.7701 3.86348 103.15 3.70709 109.777C3.54418 116.352 3.68754 123.142 4.1111 130.023C4.51512 136.885 5.21889 143.857 6.14422 150.791Z" fill="#B3D47B"/>
<path d="M101.251 59.9592C94.6561 61.7056 91.4566 62.292 90.8571 60.2198C90.1012 57.6068 100.782 52.9671 109.755 52.0548C118.734 51.136 135.716 46.757 135.716 46.757C135.716 46.757 133.689 35.2686 123.967 28.9543C119.874 26.2956 102.502 24.3342 93.392 26.0024C84.2821 27.6706 72.7937 40.3775 70.1546 42.2346C67.5089 44.0983 63.2277 41.7655 65.8733 37.8817C75.1982 24.1778 103.962 18.0915 103.962 18.0915C103.962 18.0915 106.607 12.9436 99.1003 9.04677C95.2491 7.04624 68.128 -7.21157 44.643 4.69384C26.9185 13.6864 39.7818 50.8884 39.7818 50.8884C41.3457 54.7787 45.7703 60.5847 29.3165 66.241C12.8626 71.8906 1.70009 84.4998 0.129649 95.8579C-1.4408 107.216 11.7744 114.703 11.7744 114.703C23.1455 108.571 27.5962 92.3781 29.8769 86.9239C32.1511 81.4632 36.4063 88.6703 34.282 93.9355C32.1576 99.2007 14.6416 113.361 16.5965 119.89C18.5579 126.42 46.5197 138.077 48.1162 132.265C49.9408 125.631 52.9904 114.293 52.4496 106.408C51.9869 99.6569 57.1153 98.2429 59.8587 103.827C62.6021 109.412 54.1178 115.518 51.2832 130.962C48.4485 146.405 102.137 144.027 99.0351 139.622C95.9333 135.217 95.21 130.447 92.7273 126.921C90.2446 123.396 80.1311 93.7856 88.2962 98.3992C94.4346 101.866 95.8486 111.478 98.7484 126.667C100.951 138.214 110.673 140 114.551 139.133C119.464 138.032 136.413 133.731 135.468 132.949C134.517 132.167 118.747 115.192 118.584 109.907C118.421 104.616 127.87 115.44 128.554 117.72C129.245 120.008 137.026 126.563 141.861 127.247C146.689 127.931 164.753 120.236 164.166 118.281C163.58 116.319 162.726 104.694 160.517 98.3927C159.429 95.304 154.333 86.1094 147.745 85.2231C144.018 84.7214 116.46 87.4061 114.798 81.8607C113.13 76.3087 149.804 82.1539 150.299 80.2251C150.788 78.2962 147.94 58.9882 141.952 53.7751C135.729 48.36 104.932 58.9882 101.251 59.9592ZM62.98 79.619C62.9475 82.1604 62.3936 87.9535 60.4778 90.2082C56.6983 94.2027 54.5218 89.2112 55.1799 85.6662C55.584 81.4567 58.2231 77.1428 59.8457 73.4741L59.8717 73.4155C63.371 65.2765 63.1625 75.4942 62.98 79.619ZM83.7477 78.3158C84.1713 79.6386 84.6535 81.5675 84.6796 83.1184C85.1096 85.4447 86.0741 92.1891 83.9237 93.7009C80.3136 96.1706 77.5702 90.5405 77.9156 87.8167C78.4043 84.6236 79.3427 78.2767 81.48 75.9829L81.5061 75.9569C82.6139 75.0771 83.1743 76.5107 83.7477 78.3158ZM91.6521 48.0538C97.38 51.7616 86.263 55.1305 83.839 55.2413C79.1863 54.8829 88.029 45.6427 91.6521 48.0538ZM110.954 91.518C111.52 93.4924 109.898 94.4894 108.158 93.6162C105.617 92.339 104.554 85.5815 108.067 87.5951C108.66 88.0382 110.647 90.723 110.954 91.518ZM117.678 75.9959C116.727 76.4716 111.781 77.4296 110.569 77.2992C107.669 76.7519 107.689 74.8686 109.931 73.2135C113.202 70.7894 122.52 72.8094 117.678 75.9959Z" fill="#61863A"/>
<path d="M91.6516 48.0537C92.2055 48.4121 92.5574 48.764 92.8246 49.1094C93.2547 48.3861 93.7108 47.6823 94.1213 47.0437C92.7203 46.6527 91.4496 46.4442 90.2311 45.9164C91.1564 45.2517 91.5474 43.8507 92.1534 43.1339C90.4852 42.3715 88.5629 43.199 86.8165 43.8898C87.8461 42.593 89.1103 40.8466 89.2341 39.0742C86.8295 38.8396 84.3272 41.205 82.4831 42.5279C83.2977 40.5404 84.1643 38.2401 84.0275 36.1027C82.3593 36.6371 76.4033 43.6682 76.4033 43.6682C75.9016 43.7529 74.3311 40.5273 74.3311 40.5273C72.7477 41.9349 69.1702 45.5971 69.1702 45.5971C69.1702 45.5971 67.124 45.5449 66.7917 43.7073C65.3711 44.4502 64.6999 45.6362 63.9571 45.3038C63.9571 45.3038 61.1094 40.1689 61.8849 34.1087C61.331 34.5062 59.9039 35.2491 59.2979 35.9659C58.6853 34.7212 58.5745 33.4049 58.9199 32.3232C58.1836 32.8576 57.0758 33.6525 56.4111 34.6821C55.2968 33.5222 54.8732 31.9192 54.2346 30.0881C52.2015 31.5478 53.0356 35.425 52.0386 37.5428C50.3639 34.8255 49.8296 32.1342 49.7188 28.863C47.3664 30.2706 46.7734 34.8907 45.5939 37.1388C45.0661 36.4025 43.6651 36.005 43.2676 35.4576C42.9287 36.5393 42.1337 37.393 42.1142 38.5268C38.5628 36.4676 37.3898 32.7012 35.4219 29.3452C35.8845 36.0832 37.3898 42.5604 38.5041 46.6201C39.1688 45.6296 39.8726 44.7043 40.7327 44.0005C41.7949 45.4798 42.251 47.6693 43.4435 49.3309C45.1248 47.0046 45.9132 44.2026 47.5945 41.8697C47.9203 43.8767 48.7413 45.8056 49.9338 47.4607C51.1394 46.0337 52.0907 44.2351 52.9835 42.7494C53.2767 43.9419 53.2051 45.3885 53.6286 46.7635C54.2868 45.7274 54.8602 44.196 55.968 43.401C57.5124 45.9359 57.6492 50.0282 58.3204 52.9084C59.3174 50.7906 60.0016 48.6207 60.0472 46.353C62.0087 48.3014 60.3535 51.4488 61.2528 53.8794C62.6473 52.3154 63.7811 50.3866 65.4428 49.1876C65.3646 50.6407 65.1039 52.2242 65.3516 53.736C67.326 52.5956 68.5641 50.0282 70.2779 48.5164C70.2063 49.9695 69.5742 51.8202 70.0042 53.1951C72.083 51.4162 73.7707 49.0898 76.1166 47.6823C75.9667 50.5886 75.9993 53.3646 76.4815 56.3751C78.6189 55.8473 80.4891 54.6222 82.6851 54.6874C81.4275 52.6478 88.5042 45.9555 91.6516 48.0537Z" fill="#66903D"/>
<path d="M115.978 60.7215C112.98 60.2328 110.289 58.7731 107.48 58.0628C104.385 59.0012 102.098 59.7376 101.251 59.9591C94.656 61.7055 91.4565 62.292 90.857 60.2198C90.4464 58.7862 93.4766 56.74 97.7774 55.0393C96.8977 54.7069 96.0831 54.3876 95.3793 54.1204C96.9563 52.4262 100.586 53.3124 102.639 52.6738C100.123 51.1229 97.0671 51.7355 94.0305 51.4031C94.9037 51.0577 96.6565 50.1911 96.3959 49.0507C95.4771 49.5003 94.3758 49.8783 93.2615 50.165C93.3527 52.954 85.7938 55.15 83.8454 55.2413C83.6043 55.2217 83.4153 55.1696 83.2393 55.1044C82.718 56.1861 82.0143 57.2288 81.708 58.2062C82.3401 58.3105 83.878 58.8904 84.8815 58.7275C84.5948 59.4965 84.699 60.8128 84.4123 61.5817C87.4815 62.7351 91.0394 61.8554 94.1412 63.8233C93.5873 64.2208 93.4309 65.1722 93.1964 65.6218C99.009 65.9216 105.402 64.69 111.129 64.488C108.725 64.2599 106.34 62.8915 104.092 61.7055C107.708 60.5065 111.625 62.4484 115.157 60.7476L115.978 60.7215Z" fill="#66903D"/>
<path d="M61.4621 114.762C61.7488 117.492 61.2797 120.346 61.8401 122.888C64.212 120.34 66.4602 117.049 69.1514 115.537C68.8386 117.44 68.5324 119.343 68.2131 121.246C70.155 119.851 72.364 118.261 74.4232 117.629C75.7786 121.272 80.125 127.345 83.3376 130.069C84.3737 125.703 81.7867 124.217 83.292 120.216C84.6865 116.078 83.3245 116.228 83.3636 114.241C85.6835 107.535 80.8939 107.939 81.109 100.647C80.3205 102.472 79.0628 104.218 77.4012 105.417C77.5576 104.466 77.0363 103.156 76.919 102.407C76.2087 103.756 75.6222 105.026 74.9901 105.9C74.951 104.668 73.1525 103.013 73.5891 101.866C72.7224 104.166 72.9309 106.825 71.8622 108.845C70.383 104.453 70.37 99.1421 69.6402 94.6263C66.6817 99.2659 65.3133 106.128 61.7554 109.94C61.2731 106.929 61.5403 103.801 60.8561 100.511C60.5824 101.234 59.9047 102.081 59.2857 102.83C59.4877 103.137 59.6766 103.469 59.8591 103.84C61.4491 107.073 59.2726 110.481 56.6074 115.772C56.9919 117.017 57.6175 118.339 58.0215 119.343C59.6115 118.613 60.8757 116.86 61.4621 114.762Z" fill="#66903D"/>
<path d="M58.0535 101.351C58.073 99.9436 58.2229 98.4644 58.0079 97.0959C57.6495 97.7671 56.5417 98.5621 56.1898 99.2398C55.473 97.6564 55.1081 95.4017 54.9452 93.4207C51.5436 96.2814 49.895 100.406 47.3667 103.899C45.6528 100.934 49.0479 95.0498 48.8459 91.8372C47.9401 92.9124 44.0563 95.7861 42.9486 96.5811C42.8638 94.1245 44.0824 91.1465 43.7175 88.8918C41.7821 90.2798 40.6352 92.7821 38.3024 93.6227C38.2568 92.3976 37.3445 90.534 37.3771 88.8332C36.8753 89.5239 35.7023 89.6477 34.8226 89.967C34.9399 91.2638 34.8031 92.6583 34.2818 93.9355C33.578 95.6819 31.18 98.4057 28.3584 101.501C30.7499 101.592 33.1219 101.332 35.0051 100.458C35.2657 100.256 35.5264 100.113 35.7805 100.048C35.5329 100.198 35.2723 100.335 35.0051 100.458C33.4216 101.69 31.7665 105.17 31.0888 106.734C34.777 105.763 36.7385 103.137 39.3515 102.094C38.133 105.072 35.4808 107.809 35.0181 110.663C37.7876 108.676 42.1731 104.264 43.2157 109.809C44.4017 108.539 45.8288 108.773 47.1321 108.252C47.4058 115.961 47.4839 114.019 52.3517 111.862C52.5211 109.94 52.5667 108.089 52.4494 106.395C52.0845 100.973 55.3362 98.9987 58.0535 101.351Z" fill="#66903D"/>
<path d="M33.2065 85.7054C32.7699 83.4637 32.4181 81.4502 32.4181 81.4502C32.4181 81.4502 27.9543 83.164 26.5729 87.0933C26.2536 87.9926 23.6014 87.4126 24.1032 85.184L22.4741 86.8197C20.5713 86.5134 19.9001 86.7089 17.7236 86.5916C21.8485 88.2402 19.9522 89.4718 23.1713 92.1957C21.9723 93.108 20.8841 95.5516 20.8841 95.5516C22.7152 94.6132 23.6992 95.5255 23.6992 95.5255C25.3022 97.9431 22.3307 98.712 21.3272 100.367C22.1548 100.595 23.0671 100.81 24.025 100.999C26.9769 95.3561 28.7233 89.7325 29.8897 86.9304C30.8476 84.6171 32.1704 84.578 33.2065 85.7054Z" fill="#66903D"/>
<path d="M41.2802 57.9847C47.2036 65.0615 17.7235 74.9078 23.458 82.8903C27.0094 78.3354 30.8084 76.7649 35.207 75.2922C44.5449 71.9428 40.0486 78.5309 35.8977 81.5088C38.9474 82.2517 42.6291 79.1955 45.7895 77.7554C48.1094 84.4868 37.3118 92.2413 40.3419 100.556C43.2677 96.4965 44.7078 84.8517 53.6222 81.8803C53.8503 83.2748 54.4628 85.6141 55.1014 87.7515C55.0363 87.0543 55.0558 86.3375 55.1796 85.6728C55.5837 81.4632 58.2228 77.1494 59.8454 73.4807L59.8714 73.422C63.3642 65.2766 63.1557 75.4942 62.9732 79.6256C62.9732 79.6777 62.9667 79.7494 62.9667 79.8081C64.3547 84.578 65.4429 89.7911 65.9577 94.7436C67.4565 91.5701 65.9251 83.0141 69.3658 81.385C73.5623 79.6321 77.0486 94.9 80.3394 94.9065C80.1895 94.3852 80.0983 93.8769 80.0396 93.3882C78.5734 92.0067 77.7133 89.4327 77.9153 87.8362C78.404 84.6432 79.3424 78.2963 81.4797 76.0025L81.5058 75.9764C82.6071 75.0837 83.1675 76.5173 83.7409 78.3289C84.1645 79.6517 84.6467 81.5805 84.6727 83.1314C84.7575 83.5941 84.8617 84.2392 84.966 84.9755C87.0643 87.6538 86.8362 93.4924 89.8076 95.2388C89.9966 92.5867 89.2407 89.7716 90.7786 87.8297C95.0663 91.4593 94.6037 104.675 98.5591 107.418C97.3731 103.658 95.7962 95.9752 99.1521 91.8829C103.994 95.1215 102.977 98.3732 105.128 103.124C108.171 100.941 103.714 95.317 107.434 93.4859C107.643 96.692 110.373 96.4118 111.018 98.471C111.781 101.28 112.367 108.558 113.605 111.452C114.55 108.676 113.84 101.077 114.303 97.7932C117.6 100.041 116.492 104.577 122.051 105.659C121.731 104.629 120.298 101.892 119.978 100.862C128.932 103.801 133.474 110.461 136.458 114.612C137.045 112.514 136.361 109.223 135.527 106.89C139.143 110.168 141.131 112.937 146.129 115.225C148.54 116.169 153.127 115.368 153.662 115.212C153.662 115.212 151.948 114.006 147.908 111.784C131.793 102.948 84.6336 64.84 65.9317 59.5812C61.0183 58.1802 49.758 55.6714 41.2802 57.9847ZM108.067 87.5951C108.66 88.0382 110.647 90.723 110.953 91.518C111.52 93.4924 109.898 94.4894 108.158 93.6163C105.616 92.339 104.561 85.5816 108.067 87.5951Z" fill="#86B04B"/>
<path d="M118.936 73.826C119.008 73.6371 119.086 73.4481 119.138 73.2396C118.949 73.2721 118.734 73.2982 118.525 73.3308C118.708 73.4807 118.845 73.6436 118.936 73.826Z" fill="#66903D"/>
<path d="M114.798 81.8607C114.401 80.5379 116.186 79.8667 119.131 79.5735C118.617 78.0096 119.835 77.9183 120.891 76.4587C119.887 76.6216 118.675 76.7454 117.776 76.2697C117.848 76.0872 117.932 75.9113 118.017 75.7353C117.906 75.8266 117.815 75.9113 117.678 76.0025C116.727 76.4782 111.781 77.4361 110.569 77.3058C107.669 76.7584 107.689 74.8752 109.93 73.22C111.051 72.3859 112.876 72.0927 114.603 72.1709C115.547 69.7794 116.844 66.2214 117.15 65.3352C114.739 65.4916 111.69 68.1177 106.118 68.0916C104.183 68.0851 98.0444 68.6976 95.7637 67.8961C98.6048 69.7728 103.583 72.4837 106.737 73.7544C105.877 74.3734 109.578 76.1003 104.255 77.3123C107.187 79.3128 116.056 84.78 119.301 86.1811C119.053 86.357 117.769 87.556 117.437 87.6147C120.259 90.2473 129.883 96.6007 133.995 96.4834C132.457 94.0528 125.869 92.4694 124.781 89.146C126.86 88.4032 129.844 90.2212 132.04 89.3871C128.554 87.4844 124.051 86.937 120.435 84.7149C117.398 84.1805 115.228 83.3008 114.798 81.8607Z" fill="#66903D"/>
<path d="M96.2132 71.0566C93.8347 69.6881 85.0898 65.6936 93.8738 63.3151C90.8959 61.1191 83.8061 64.2991 82.5028 61.3146C81.3364 58.5191 85.8978 57.4764 87.4813 55.7822C82.6005 56.7727 77.2636 57.5286 72.6891 54.6614C66.8896 51.2663 73.1192 52.5305 75.3804 45.167C71.842 46.8678 68.7402 51.8984 64.5176 51.8528C58.7832 52.0548 60.3993 44.1765 59.2002 40.5665C57.5125 42.8928 56.8674 47.8322 53.7265 48.132C53.4007 46.1249 52.951 43.9354 52.2082 42.5083C51.7129 44.5414 51.0092 47.8452 49.0282 48.9921C47.8096 46.5094 45.2617 49.4613 39.7033 38.3444C38.6867 43.551 44.7926 51.6638 42.2447 56.2905L41.2867 57.9782C47.6011 58.1998 56.8087 56.7857 62.68 58.7211C69.5808 61.3211 76.7163 63.4194 83.4607 66.9708C86.2888 68.5738 89.7751 71.1087 92.7856 73.422C95.7897 75.7223 98.7937 77.3839 101.661 79.5409C107.043 83.6006 111.442 86.4091 115.814 89.5696C116.864 90.332 124.475 95.5581 125.837 96.6398C128.919 99.0835 140.785 103.528 121.008 90.8924C120.597 90.6317 122.52 90.3971 122.52 90.3971C122.52 90.3971 120.272 88.5335 116.746 86.8001C112.752 84.8322 107.943 80.9289 112.289 81.4437C111.246 80.1925 109.22 79.6582 106.881 78.4982C105.401 77.7684 102.951 75.7418 102.951 75.7418C102.951 75.7418 103.199 75.0902 103.59 74.7057C104.417 73.6566 107.187 74.2952 109.096 73.9563C109.305 73.7348 109.539 73.5132 109.826 73.2982C105.975 71.4866 100.436 73.9368 96.2132 71.0566Z" fill="#86B04B"/>
<path d="M118.741 116.43C117.679 114.951 116.988 113.211 116.297 111.471C115.802 113.504 114.987 115.485 113.906 117.101C113.293 115.863 112.739 114.306 112.491 112.8C112.022 113.7 110.967 114.175 110.543 114.755C109.618 113.465 109.559 111.823 108.947 110.585C108.705 111.035 108.106 111.751 107.871 112.201C107.363 110.324 106.353 108.532 105.662 106.792C105.011 109.777 105.63 112.976 104.339 115.857C103.173 113.061 101.785 109.575 99.374 107.392C99.5369 110.35 100.293 113.732 100.586 116.873L100.905 116.925C104.268 119.265 106.079 124.126 107.963 127.527C106.822 125.553 106.418 123.044 107.415 120.926C108.21 122.034 108.953 123.461 109.566 124.699C110.009 122.979 110.634 121.128 111.794 120.021C113.117 121.865 114.081 123.976 115.085 125.768C115.665 124.237 115.789 122.464 117.001 121.037C118.193 122.699 119.386 124.361 120.819 125.573C120.813 123.618 120.539 121.291 120.539 119.336C122.044 119.701 123.765 121.435 125.472 121.545C123.55 119.115 121.738 116.639 120.454 114.495C120.037 115.309 119.503 116.033 118.741 116.43Z" fill="#66903D"/>
<path d="M124.611 124.98C124.266 128.583 127.264 134.155 127.264 134.155C122.624 132.617 122.096 129.463 122.037 128.557C122.142 133.138 124.768 135.66 124.768 135.66C122.78 136.859 109.761 125.423 109.761 125.423C110.334 128.401 117.326 137.348 117.326 137.348C113.938 137.621 109.389 129.671 109.389 129.671C110.06 134.239 111.983 137.406 111.983 137.406C107.369 137.237 100.657 121.845 100.657 121.845C99.543 125.116 99.543 128.14 99.7841 130.245C103.101 138.586 111.123 139.896 114.557 139.127C117.926 138.371 126.938 136.116 131.981 134.519C128.02 130.082 124.611 124.98 124.611 124.98Z" fill="#4E7C39"/>
<path d="M164.166 118.281C153.883 116.573 148.214 118.613 148.214 118.613C152.528 121.415 153.029 123.468 153.029 123.468L150.697 123.077C145.321 121.402 140.746 122.673 140.746 122.673C143.34 123.65 144.845 125.279 145.718 126.85C152.769 125.266 164.648 119.877 164.166 118.281Z" fill="#4E7C39"/>
<path d="M108.992 31.1308C108.992 31.1308 100.827 36.6371 97.6538 35.8356C97.5235 35.803 97.3997 35.7574 97.2824 35.6987C94.4347 34.2912 100.958 40.4036 111.781 37.0281C111.781 37.0281 107.911 44.1505 97.0934 45.7144C97.0934 45.7144 107.22 48.2427 119.757 47.0828C119.757 47.0828 123.537 45.8121 114.772 50.0152C114.772 50.0152 117.144 50.2693 120.142 50.354C127.955 48.7706 135.722 46.77 135.722 46.77C135.722 46.77 133.696 35.2817 123.973 28.9673C119.881 26.3086 102.509 24.3472 93.3986 26.0154C92.1736 26.237 90.9029 26.667 89.6191 27.2405C94.7866 26.8951 107.083 26.6084 108.992 31.1308Z" fill="#395628"/>
<path d="M153.271 87.934C152.626 88.1295 151.206 88.1099 148.788 87.8167L153.174 90.1235C153.174 90.1235 154.783 92.4628 151.968 91.2703L153.962 93.8378C153.962 93.8378 151.571 95.1932 146.494 93.5772L152.75 99.3767C152.75 99.3767 149.329 101.423 144.435 99.481L148.514 104.609C148.514 104.609 144.878 107.698 135.169 97.0504C135.169 97.0504 130.106 103.234 154.509 115.296C159.123 117.577 162.081 118.952 164.167 118.281C163.58 116.319 162.727 104.694 160.518 98.3928C159.762 96.2424 157.064 91.14 153.271 87.934Z" fill="#395628"/>
<path d="M123.993 61.3146C123.993 61.3146 131.109 60.5521 133.65 57.5546C133.65 57.5546 127.082 67.655 120.624 65.9021C120.624 65.9021 124.312 68.6715 130.425 65.5372C130.425 65.5372 133.455 67.9026 126.424 71.4149C126.424 71.4149 132.08 73.1418 136.387 71.1152C136.387 71.1152 133.676 76.2501 128.092 76.3739C128.092 76.3739 132.849 78.0421 138.264 80.1078C144.761 80.5639 150.111 80.9484 150.293 80.2185C150.782 78.2897 147.934 58.9817 141.946 53.7686C139.978 52.0548 135.547 51.9505 130.288 52.6347C128.952 55.8473 126.795 59.8744 123.993 61.3146Z" fill="#395628"/>
<path d="M46.1221 13.6408C46.1221 13.6408 40.1466 26.9603 39.8208 33.9067C39.8208 33.9067 57.7538 8.94904 62.6802 10.0373C62.6802 10.0373 56.7568 15.2178 54.1633 19.8053C54.1633 19.8053 62.2436 12.7481 65.6973 13.9666C65.6973 13.9666 54.639 21.3888 52.8014 24.3407C52.8014 24.3407 71.2492 15.9802 72.8458 17.7787C72.8458 17.7787 68.8903 19.7597 66.9289 24.6991C66.9289 24.6991 73.4518 17.2183 79.9421 16.8404C79.9421 16.8404 69.3986 25.0314 68.2712 28.8891C68.2712 28.8891 88.3938 13.3671 92.9031 17.1401C92.9031 17.1401 78.6193 23.6109 76.0583 28.4395C76.0583 28.4395 77.8959 27.5272 80.6393 26.2891C91.7367 20.6915 103.961 18.1045 103.961 18.1045C103.961 18.1045 106.607 12.9566 99.1002 9.05982C95.249 7.05929 68.1279 -7.19853 44.6429 4.70688C39.2734 7.43072 36.7125 12.735 35.748 18.8083C38.5501 16.1431 42.4338 13.3215 46.1221 13.6408Z" fill="#395628"/>
<path d="M50.2666 57.5155C50.2666 57.5155 50.2145 57.4308 50.1167 57.2744C50.019 57.1115 49.8756 56.903 49.6932 56.5446C49.5042 56.1992 49.3217 55.7887 49.1327 55.3065C48.9568 54.8243 48.7809 54.2704 48.6571 53.6513C48.6245 53.4949 48.5984 53.3385 48.5658 53.1821C48.5463 53.0192 48.5202 52.8563 48.4942 52.6869C48.4355 52.3546 48.4225 52.0092 48.3899 51.6573C48.3573 50.9535 48.3443 50.2042 48.3964 49.4483C48.442 48.6858 48.5202 47.9104 48.644 47.1284C48.7613 46.3465 48.8982 45.558 49.0611 44.776C49.3739 43.2121 49.7453 41.6742 50.0711 40.2211C50.2275 39.4978 50.3839 38.8005 50.5142 38.1293C50.6445 37.4647 50.7553 36.8326 50.8531 36.2526C50.8922 35.9594 50.9378 35.6792 50.9704 35.412C51.003 35.1448 51.0355 34.8907 51.0616 34.6496C51.1072 34.1674 51.1398 33.7503 51.1593 33.405C51.1854 33.0596 51.1789 32.7859 51.1854 32.6034C51.1919 32.4145 51.1919 32.3167 51.1919 32.3167C51.1919 32.3167 51.1985 32.4145 51.205 32.6034C51.2115 32.7859 51.231 33.0596 51.2245 33.405C51.2375 33.7568 51.2245 34.1739 51.2115 34.6561C51.1984 34.8972 51.1854 35.1579 51.1659 35.425C51.1463 35.6987 51.1203 35.9789 51.1007 36.2787C51.0421 36.8717 50.9704 37.5168 50.8791 38.1945C50.7879 38.8722 50.6837 39.5825 50.5664 40.3188C50.3383 41.785 50.0646 43.3489 49.8496 44.9064C49.7388 45.6883 49.6541 46.4703 49.5889 47.2327C49.5172 47.9951 49.4912 48.751 49.4912 49.4743C49.4846 50.1976 49.5433 50.8884 49.6084 51.54C49.6606 51.8593 49.6932 52.1721 49.7648 52.4719C49.7974 52.6217 49.8235 52.7716 49.8561 52.9085C49.8952 53.0453 49.9277 53.1887 49.9668 53.3255C50.1167 53.8664 50.2992 54.3421 50.4751 54.7526C50.6641 55.1566 50.84 55.5085 51.0095 55.7626C51.1528 56.0168 51.3288 56.2514 51.433 56.4012C51.5438 56.5511 51.5959 56.6293 51.5959 56.6293L50.2666 57.5155Z" fill="#B3D47B"/>
<path d="M54.926 58.3236C54.926 58.3236 54.7826 58.4148 54.509 58.5907C54.3721 58.6754 54.2092 58.7862 54.0072 58.9166C53.8313 59.0469 53.6227 59.1968 53.4012 59.3662C53.1666 59.5226 52.919 59.7441 52.6518 59.9657C52.3716 60.1807 52.0849 60.4414 51.7786 60.7151C51.4658 60.9823 51.153 61.295 50.8142 61.6078C50.4818 61.9336 50.13 62.2725 49.765 62.6374C49.0352 63.3738 48.2467 64.1688 47.4061 65.0094C46.559 65.85 45.6337 66.7232 44.6106 67.5573C43.5875 68.3914 42.4602 69.1864 41.2351 69.851C40.0361 70.4896 38.8045 71.1282 37.5794 71.7603C35.1293 73.0245 32.6856 74.2952 30.4505 75.5854C28.2154 76.8692 26.1888 78.1724 24.5597 79.4431C22.9306 80.7073 21.7381 81.9584 21.0409 82.9424C20.8715 83.19 20.7216 83.4181 20.6043 83.6201C20.4935 83.8286 20.3892 83.9981 20.3241 84.1414C20.1937 84.4347 20.1221 84.5976 20.1221 84.5976C20.1221 84.5976 20.1872 84.4347 20.311 84.1349C20.3697 83.985 20.474 83.8091 20.5717 83.6006C20.6825 83.392 20.8258 83.164 20.9887 82.9033C21.6534 81.8868 22.8068 80.5835 24.4033 79.2476C25.9933 77.9118 27.9873 76.5238 30.1899 75.1488C32.3924 73.7739 34.7969 72.412 37.2015 71.0631C38.4005 70.3854 39.606 69.7142 40.7725 69.03C41.9128 68.3588 42.9554 67.5703 43.9068 66.7362C44.8582 65.9021 45.7249 65.0224 46.5329 64.1622C47.3344 63.289 48.0969 62.468 48.8006 61.7121C49.1525 61.3276 49.5044 60.9692 49.8302 60.6238C50.1691 60.285 50.4818 59.9592 50.7946 59.6659C51.1074 59.3727 51.3941 59.0925 51.6808 58.8449C51.9676 58.5973 52.2152 58.3692 52.4693 58.1672C52.7169 57.9717 52.945 57.7892 53.1405 57.6394C53.3295 57.5025 53.4924 57.3917 53.6227 57.294C53.8899 57.1115 54.0267 57.0073 54.0267 57.0073L54.926 58.3236Z" fill="#B3D47B"/>
<path d="M61.4093 59.2815C61.4093 59.2815 60.8684 60.1417 59.917 61.6469C59.4413 62.3963 58.8418 63.3021 58.1641 64.3512C57.4799 65.3873 56.711 66.5538 55.8703 67.8245C55.0362 69.1017 54.1109 70.4701 53.1856 71.9428C52.7164 72.6792 52.2212 73.422 51.7455 74.204C51.2698 74.986 50.7876 75.7809 50.2923 76.589C49.8101 77.41 49.3475 78.2506 48.8587 79.0978C48.7349 79.3128 48.6176 79.5213 48.4938 79.7364C48.383 79.9579 48.2723 80.173 48.1615 80.3945C47.9399 80.8311 47.7118 81.2742 47.4838 81.7174C47.373 81.9389 47.2557 82.1605 47.1449 82.382C47.0928 82.4928 47.0276 82.6036 46.982 82.7144L46.8256 83.0597C46.6171 83.5224 46.4086 83.9785 46.2 84.4412C45.783 85.36 45.3594 86.2853 44.9359 87.2107C44.5123 88.136 44.0953 89.0613 43.6782 89.9801C43.4632 90.4428 43.2547 90.8989 43.0461 91.3616C42.8441 91.8243 42.6421 92.2804 42.4466 92.7431C41.6451 94.5742 40.8566 96.3792 40.0942 98.1191C39.9052 98.5557 39.7163 98.9857 39.5273 99.4158C39.4361 99.6309 39.3383 99.8459 39.2471 100.054L39.1102 100.374L38.9864 100.693C38.8235 101.123 38.6541 101.54 38.5303 101.964C38.4651 102.172 38.3934 102.381 38.3283 102.596C38.2696 102.811 38.211 103.019 38.1523 103.228C37.6962 104.903 37.3964 106.525 37.1618 108.03C36.9273 109.536 36.7774 110.924 36.6731 112.155C36.5623 113.387 36.4907 114.469 36.4581 115.355C36.4125 116.248 36.4059 116.945 36.3994 117.421C36.3994 117.896 36.406 118.15 36.406 118.15C36.406 118.15 36.3929 117.896 36.3864 117.421C36.3799 116.938 36.3734 116.241 36.3929 115.355C36.406 114.462 36.445 113.38 36.5298 112.149C36.6145 110.911 36.7253 109.516 36.9207 108.004C37.1162 106.486 37.3834 104.85 37.8005 103.143C37.8526 102.928 37.9047 102.72 37.9634 102.498C38.0285 102.283 38.0872 102.068 38.1523 101.853C38.2761 101.41 38.426 100.986 38.5824 100.556L38.6997 100.23L38.83 99.9111C38.9213 99.696 39.006 99.481 39.0972 99.2594C39.2732 98.8293 39.4491 98.3862 39.6316 97.9496C40.3549 96.1837 41.0977 94.3591 41.8536 92.502C42.0426 92.0393 42.2316 91.5701 42.4271 91.1074C42.6226 90.6448 42.818 90.1756 43.0201 89.713C43.4176 88.7811 43.8216 87.8493 44.2126 86.9109C44.6101 85.9725 45.0076 85.0407 45.4116 84.1089C45.6071 83.6462 45.8091 83.177 46.0046 82.7144L46.1544 82.369C46.2066 82.2452 46.2652 82.1344 46.3174 82.0236C46.4281 81.7955 46.5389 81.5675 46.6432 81.3394C46.8647 80.8833 47.0798 80.4336 47.2948 79.984C47.4056 79.7559 47.5099 79.5344 47.6206 79.3063C47.7379 79.0847 47.8552 78.8697 47.966 78.6481C48.4352 77.7815 48.8913 76.9148 49.3475 76.0807C49.8232 75.2531 50.2988 74.4386 50.7615 73.6371C51.2177 72.8355 51.6999 72.0797 52.1495 71.3238C53.0488 69.8185 53.9415 68.4305 54.743 67.1272C55.5511 65.837 56.2874 64.651 56.9456 63.6018C57.5907 62.5527 58.1641 61.6469 58.6202 60.8845C59.5325 59.3532 60.0473 58.48 60.0473 58.48L61.4093 59.2815Z" fill="#B3D47B"/>
<path d="M77.0428 64.247C77.0428 64.247 76.5475 65.2244 75.6744 66.9252C74.8142 68.6325 73.5891 71.0696 72.3054 74.0671C71.6668 75.5659 71.0152 77.208 70.4287 78.974C69.8422 80.7399 69.3209 82.6362 68.9299 84.6237C68.5454 86.6112 68.2848 88.7029 68.2001 90.8338C68.1545 91.9025 68.1479 92.9776 68.1805 94.0594C68.187 94.6002 68.2261 95.1411 68.2457 95.6819L68.363 97.3175C68.5389 99.4875 68.7866 101.664 69.0602 103.801C69.3535 105.932 69.6663 108.03 70.0247 110.051C70.1876 111.061 70.3896 112.051 70.5655 113.022C70.761 113.986 70.9565 114.938 71.139 115.857C71.5365 117.694 71.934 119.428 72.3315 121.024C72.729 122.614 73.133 124.067 73.5044 125.351C73.6999 125.99 73.8824 126.589 74.0453 127.136C74.2212 127.69 74.3972 128.192 74.5405 128.642C74.8337 129.554 75.1139 130.258 75.2834 130.74C75.4593 131.222 75.5571 131.483 75.5571 131.483C75.5571 131.483 75.4593 131.229 75.2703 130.753C75.0879 130.271 74.7881 129.58 74.4753 128.674C74.319 128.218 74.13 127.723 73.941 127.176C73.7585 126.628 73.5631 126.035 73.3545 125.397C72.9505 124.119 72.5139 122.679 72.0773 121.089C71.6407 119.506 71.1976 117.779 70.761 115.941C70.5525 115.023 70.344 114.078 70.1224 113.113C69.9269 112.142 69.6988 111.158 69.5164 110.142C69.1124 108.122 68.754 106.03 68.4086 103.893C68.0828 101.755 67.783 99.5787 67.555 97.3892C67.3204 95.2128 67.1835 92.9842 67.2356 90.8077C67.2747 88.6247 67.4898 86.4808 67.8417 84.4282C68.1936 82.3755 68.6823 80.4206 69.2427 78.6025C69.8031 76.7845 70.4221 75.0902 71.0412 73.5523C72.2793 70.4766 73.4588 67.9939 74.2864 66.254C75.1205 64.5207 75.5962 63.5302 75.5962 63.5302L77.0428 64.247Z" fill="#B3D47B"/>
<path d="M100.071 78.2962C100.071 78.2962 99.993 78.5048 99.8496 78.8957C99.7845 79.0847 99.7193 79.3128 99.6411 79.5799C99.576 79.8602 99.4847 80.186 99.4196 80.5509C99.2632 81.2873 99.1524 82.2061 99.0807 83.2617C99.009 84.3239 98.9895 85.5294 99.0351 86.8457C99.1198 89.4848 99.4652 92.5606 100.013 95.8383C100.286 97.4739 100.612 99.1551 100.983 100.862C101.355 102.57 101.765 104.29 102.222 106.004C102.443 106.857 102.684 107.711 102.932 108.565L103.121 109.203L103.134 109.242L103.14 109.262C103.134 109.242 103.14 109.269 103.14 109.269L103.173 109.347L103.232 109.503L103.342 109.816C103.499 110.226 103.636 110.65 103.805 111.048C104.437 112.657 105.2 114.208 105.982 115.668C106.366 116.404 106.783 117.101 107.181 117.798C107.598 118.483 107.995 119.154 108.412 119.792C109.227 121.083 110.028 122.282 110.778 123.383C112.276 125.586 113.547 127.41 114.414 128.7C114.85 129.345 115.183 129.854 115.411 130.206C115.639 130.558 115.756 130.74 115.756 130.74C115.756 130.74 115.632 130.558 115.398 130.212C115.17 129.867 114.824 129.365 114.375 128.726C113.488 127.449 112.179 125.657 110.634 123.481C109.865 122.393 109.031 121.213 108.191 119.936C107.767 119.304 107.35 118.633 106.92 117.955C106.503 117.264 106.073 116.567 105.669 115.837C104.848 114.377 104.053 112.846 103.375 111.21C103.186 110.806 103.049 110.396 102.88 109.985L102.762 109.679L102.704 109.523L102.678 109.444L102.665 109.412L102.658 109.392L102.652 109.353L102.45 108.721C102.189 107.874 101.928 107.02 101.687 106.167C101.192 104.453 100.749 102.726 100.338 101.025C99.9344 99.318 99.5694 97.6303 99.2567 95.9882C98.6376 92.7039 98.2271 89.5956 98.0837 86.9044C98.012 85.562 98.0055 84.3239 98.0576 83.2226C98.1098 82.1213 98.2075 81.1569 98.3574 80.3684C98.4226 79.9775 98.5073 79.6256 98.5789 79.3128C98.6702 79.0065 98.7419 78.7263 98.807 78.5308C98.9439 78.1398 99.0221 77.9248 99.0221 77.9248L100.071 78.2962Z" fill="#B3D47B"/>
<path d="M129.46 98.875C129.46 98.875 129.479 98.9792 129.512 99.1747C129.551 99.3702 129.597 99.67 129.675 100.015C129.753 100.367 129.844 100.797 129.988 101.286C130.053 101.534 130.124 101.794 130.216 102.061C130.3 102.335 130.385 102.622 130.496 102.915C130.704 103.508 130.946 104.147 131.232 104.811C131.376 105.144 131.525 105.483 131.688 105.821C131.773 105.991 131.851 106.167 131.936 106.343C132.021 106.512 132.112 106.688 132.203 106.864C132.562 107.568 132.966 108.278 133.389 108.995C133.826 109.705 134.275 110.415 134.758 111.113C135.233 111.81 135.742 112.488 136.25 113.152C136.765 113.81 137.325 114.39 137.912 114.918C138.498 115.446 139.104 115.928 139.677 116.378C140.251 116.834 140.792 117.258 141.28 117.675C141.769 118.085 142.193 118.496 142.551 118.874C142.903 119.258 143.183 119.617 143.385 119.929C143.49 120.086 143.574 120.229 143.652 120.353C143.724 120.477 143.776 120.594 143.822 120.679C143.913 120.861 143.959 120.952 143.959 120.952C143.959 120.952 143.907 120.861 143.815 120.685C143.763 120.601 143.711 120.49 143.639 120.366C143.561 120.242 143.463 120.105 143.359 119.955C143.144 119.656 142.857 119.304 142.493 118.939C142.128 118.574 141.698 118.183 141.196 117.792C140.701 117.394 140.14 116.99 139.554 116.554C138.967 116.117 138.342 115.661 137.729 115.14C137.117 114.625 136.504 114.039 135.97 113.393C135.435 112.748 134.901 112.077 134.393 111.393C133.878 110.709 133.402 110.005 132.933 109.301C132.483 108.591 132.04 107.887 131.656 107.183C131.558 107.007 131.46 106.831 131.363 106.662C131.271 106.486 131.18 106.31 131.095 106.141C130.913 105.795 130.75 105.456 130.594 105.118C130.274 104.446 130.007 103.808 129.773 103.202C129.649 102.902 129.551 102.609 129.453 102.329C129.349 102.055 129.264 101.788 129.193 101.534C129.03 101.032 128.919 100.582 128.821 100.211C128.723 99.8394 128.671 99.5592 128.626 99.3637C128.58 99.1682 128.561 99.0639 128.561 99.0639L129.46 98.875Z" fill="#B3D47B"/>
<path d="M122.943 94.5285C122.943 94.5285 123.484 94.3591 124.429 94.0594C124.664 93.9877 124.924 93.903 125.211 93.8117C125.504 93.7335 125.824 93.6619 126.162 93.5837C126.84 93.4273 127.603 93.2122 128.45 93.1014C128.873 93.0298 129.31 92.9581 129.766 92.8864C129.994 92.8408 130.229 92.8343 130.463 92.8082C130.698 92.7887 130.939 92.7626 131.187 92.7431C131.434 92.7235 131.675 92.6974 131.929 92.6779C132.053 92.6649 132.184 92.6518 132.307 92.6453C132.438 92.6388 132.562 92.6388 132.692 92.6323C133.207 92.6258 133.728 92.6127 134.262 92.5997C134.399 92.5997 134.529 92.5932 134.666 92.5932C134.803 92.5997 134.933 92.6062 135.07 92.6127C135.344 92.6258 135.611 92.6388 135.885 92.6518C136.432 92.6779 136.986 92.6974 137.547 92.7756C138.1 92.8408 138.661 92.906 139.221 92.9711C139.782 93.0754 140.336 93.1797 140.896 93.2774L141.313 93.3556C141.469 93.3817 141.593 93.4273 141.73 93.4599C142.004 93.5381 142.277 93.5902 142.545 93.6944C142.818 93.7922 143.085 93.8769 143.353 93.9877C143.613 94.0985 143.874 94.2027 144.128 94.3135C145.145 94.7762 146.122 95.291 147.047 95.8058C148.898 96.8484 150.586 97.878 152.072 98.686C152.443 98.8945 152.801 99.077 153.147 99.2594C153.492 99.4419 153.824 99.5918 154.131 99.7416C154.756 100.028 155.304 100.276 155.773 100.439C156.007 100.517 156.209 100.608 156.392 100.66C156.581 100.713 156.731 100.758 156.861 100.804C157.115 100.875 157.252 100.915 157.252 100.915C157.252 100.915 157.115 100.875 156.861 100.804C156.731 100.771 156.574 100.726 156.392 100.673C156.203 100.628 156.001 100.543 155.766 100.465C155.297 100.309 154.743 100.074 154.111 99.8003C153.798 99.6569 153.46 99.507 153.114 99.3311C152.769 99.1552 152.404 98.9792 152.026 98.7837C150.521 98.0018 148.813 96.9982 146.943 95.9947C146.011 95.493 145.034 95.0042 144.017 94.5676C143.763 94.4634 143.503 94.3591 143.248 94.2614C142.988 94.1636 142.721 94.0854 142.46 93.9942C142.206 93.8965 141.919 93.8508 141.645 93.7726C141.508 93.7466 141.365 93.6944 141.241 93.6814L140.824 93.6162C140.27 93.525 139.716 93.4338 139.163 93.3426C138.609 93.2904 138.055 93.2318 137.501 93.1797C136.954 93.108 136.4 93.108 135.859 93.0884C135.585 93.0819 135.318 93.0754 135.051 93.0623C134.914 93.0558 134.784 93.0558 134.647 93.0493C134.516 93.0558 134.386 93.0558 134.256 93.0623C133.728 93.0819 133.213 93.1014 132.705 93.121C132.581 93.1275 132.451 93.134 132.327 93.1405C132.203 93.1536 132.079 93.1666 131.955 93.1797C131.708 93.2057 131.467 93.2318 131.226 93.2579C130.985 93.2839 130.75 93.31 130.515 93.336C130.281 93.3621 130.053 93.3817 129.831 93.4273C129.382 93.5055 128.951 93.5837 128.541 93.6619C127.707 93.7857 126.97 94.0138 126.312 94.1767C125.986 94.2614 125.674 94.3396 125.394 94.4178C125.113 94.5155 124.853 94.6002 124.618 94.6784C123.68 94.9912 123.145 95.1737 123.145 95.1737L122.943 94.5285Z" fill="#B3D47B"/>
<path d="M92.5645 72.9789C92.5645 72.9789 92.7404 72.9007 93.0662 72.7638C93.2291 72.6921 93.4311 72.6074 93.6722 72.5032C93.9133 72.3989 94.1805 72.2816 94.4998 72.1643C94.8126 72.0405 95.1645 71.9102 95.5489 71.7668C95.9334 71.6235 96.3439 71.4931 96.787 71.3367C97.2302 71.1803 97.7059 71.0435 98.2076 70.8936C98.4618 70.8219 98.7159 70.7372 98.9766 70.6655C99.2437 70.5939 99.5109 70.5222 99.7911 70.4505C100.905 70.1508 102.117 69.8771 103.401 69.6099C104.691 69.3558 106.053 69.1081 107.467 68.8931C108.881 68.6715 110.348 68.4695 111.827 68.261C112.57 68.1567 113.313 68.046 114.062 67.9287C114.433 67.87 114.811 67.8049 115.183 67.7462L116.297 67.5181C117.04 67.3683 117.783 67.1988 118.532 67.0685C119.282 66.9447 120.031 66.8209 120.774 66.7036L121.328 66.6124C121.51 66.5863 121.699 66.5668 121.888 66.5472C122.253 66.5016 122.624 66.456 122.989 66.4104C123.719 66.3256 124.436 66.2214 125.153 66.1758C125.87 66.1171 126.567 66.065 127.251 66.0063C127.596 65.9738 127.935 65.9672 128.268 65.9542C128.606 65.9412 128.939 65.9281 129.265 65.9151C129.59 65.9021 129.916 65.8891 130.236 65.876C130.548 65.863 130.861 65.8434 131.174 65.8565C131.793 65.8565 132.386 65.863 132.953 65.863C134.1 65.8434 135.142 65.9216 136.074 65.9607C136.537 65.9868 136.974 66.0063 137.371 66.0259C137.769 66.065 138.14 66.0976 138.472 66.1236C139.802 66.2474 140.558 66.3191 140.558 66.3191C140.558 66.3191 139.802 66.2605 138.472 66.1627C138.14 66.1367 137.775 66.1106 137.371 66.078C136.974 66.065 136.537 66.052 136.074 66.0389C135.149 66.0129 134.1 65.9607 132.966 65.9933C132.393 65.9998 131.8 66.0129 131.187 66.0194C130.881 66.0194 130.568 66.0389 130.249 66.0585C129.929 66.078 129.61 66.0976 129.284 66.1171C128.958 66.1367 128.633 66.1562 128.294 66.1758C127.961 66.1953 127.623 66.2083 127.277 66.2474C126.593 66.3191 125.902 66.3843 125.192 66.456C124.482 66.5081 123.765 66.6319 123.042 66.7297C122.683 66.7818 122.312 66.8339 121.947 66.886C121.764 66.9121 121.582 66.9382 121.393 66.9643L120.839 67.062C120.109 67.1988 119.366 67.3292 118.623 67.466C117.881 67.6094 117.144 67.7983 116.395 67.9547L115.274 68.2089C114.903 68.2806 114.525 68.3457 114.147 68.4174C113.397 68.5477 112.654 68.6715 111.912 68.7888C110.426 69.0234 108.979 69.2515 107.572 69.4991C106.171 69.7402 104.822 70.0139 103.551 70.2876C102.28 70.5743 101.088 70.8676 99.9996 71.1869C99.7259 71.2651 99.4588 71.3433 99.1981 71.4149C98.9375 71.4931 98.6833 71.5778 98.4422 71.6495C97.9535 71.8124 97.4843 71.9558 97.0542 72.1122C96.6241 72.2686 96.2136 72.4054 95.8487 72.5553C95.4838 72.7052 95.1449 72.8355 94.8452 72.9593C94.5389 73.0766 94.2717 73.2004 94.0306 73.3047C93.796 73.4155 93.594 73.5002 93.4311 73.5719C93.1053 73.7217 92.9359 73.7934 92.9359 73.7934L92.5645 72.9789Z" fill="#B3D47B"/>
<path d="M68.916 59.9135C68.916 59.9135 69.0724 59.7636 69.3721 59.4834C69.6654 59.2032 70.1085 58.7992 70.6428 58.2714C71.1837 57.7501 71.8353 57.105 72.5912 56.3621C73.3471 55.6192 74.2008 54.7852 75.1326 53.8729C76.0775 52.9736 77.1006 51.9896 78.2409 51.0056C78.7948 50.5039 79.4074 50.0217 80.0134 49.5134C80.6455 49.0312 81.271 48.5229 81.9553 48.0602C82.6199 47.5715 83.3302 47.1284 84.047 46.6723C84.7834 46.2552 85.5132 45.7991 86.2952 45.4276C86.4907 45.3299 86.6796 45.2321 86.8751 45.1344L87.1684 44.9845L87.4681 44.8542C87.8656 44.6783 88.2631 44.5023 88.6606 44.3199C89.0646 44.1439 89.4752 44.0005 89.8857 43.8442C90.2962 43.6878 90.7002 43.5249 91.1108 43.388C91.9253 43.1013 92.7464 42.8146 93.5609 42.5279C94.3755 42.2411 95.2096 42 96.0241 41.7329C96.4281 41.6025 96.8387 41.4722 97.2427 41.3484C97.6467 41.2311 98.0507 41.1073 98.4482 40.9835C99.2497 40.7489 100.045 40.5143 100.827 40.2797C102.391 39.8366 103.896 39.4065 105.336 39.0025C106.053 38.8005 106.75 38.5985 107.421 38.4095C108.092 38.2075 108.744 38.0185 109.363 37.8361C109.989 37.6471 110.588 37.4777 111.155 37.3017C111.716 37.1258 112.256 36.9498 112.758 36.7934C113.26 36.6305 113.736 36.4872 114.166 36.3438C114.596 36.1939 114.993 36.0571 115.352 35.9333C116.785 35.4315 117.6 35.1448 117.6 35.1448C117.6 35.1448 116.785 35.4511 115.371 35.9984C115.013 36.1288 114.622 36.2787 114.198 36.4416C113.768 36.5914 113.299 36.7544 112.797 36.9303C112.302 37.1062 111.768 37.2887 111.207 37.4842C110.647 37.6797 110.054 37.8687 109.435 38.0707C108.816 38.2727 108.171 38.4812 107.506 38.6962C106.841 38.9047 106.151 39.1263 105.434 39.3479C104.013 39.7975 102.521 40.2667 100.97 40.7554C100.195 41.0095 99.4126 41.2637 98.6176 41.5243C98.2201 41.6547 97.8226 41.785 97.4251 41.9153C97.0276 42.0522 96.6301 42.1955 96.2261 42.3324C95.4246 42.6191 94.6166 42.8797 93.8085 43.1925C93.0005 43.5053 92.1925 43.8116 91.3844 44.1179C90.9739 44.2677 90.5829 44.4371 90.192 44.6001C89.801 44.7695 89.397 44.9194 89.0125 45.1018C88.628 45.2843 88.2436 45.4733 87.8591 45.6557L87.5724 45.7926L87.2922 45.9424C87.1097 46.0402 86.9207 46.1444 86.7318 46.2487C85.9889 46.6332 85.2916 47.0958 84.5879 47.5259C83.9102 47.9951 83.2325 48.4382 82.5939 48.9334C81.9422 49.4026 81.3427 49.9174 80.7497 50.3996C80.1698 50.9144 79.5898 51.3966 79.0555 51.9049C77.9738 52.9019 76.9898 53.8989 76.0775 54.8177C75.1782 55.7496 74.3507 56.6097 73.6208 57.3656C72.891 58.128 72.2459 58.7927 71.7115 59.3401C71.1772 59.894 70.7602 60.3045 70.4669 60.5912C70.1802 60.878 70.0303 61.0343 70.0303 61.0343L68.916 59.9135Z" fill="#B3D47B"/>
<path d="M55.3164 57.4308C55.3164 57.4308 55.3229 57.2418 55.3294 56.8834C55.3425 56.5316 55.349 56.0102 55.4076 55.326C55.4467 54.6418 55.5249 53.8273 55.6357 52.8954C55.7009 52.4328 55.7595 51.931 55.8442 51.4162C55.9355 50.9014 56.0071 50.3475 56.1244 49.7871C56.2352 49.2202 56.346 48.6337 56.4893 48.0277C56.5545 47.7279 56.6327 47.4217 56.7044 47.1024C56.7826 46.7896 56.8673 46.4768 56.9455 46.1575C57.1019 45.5189 57.3104 44.8738 57.4929 44.2091C57.5971 43.8768 57.7079 43.5509 57.8122 43.2121C57.9164 42.8798 58.0272 42.5409 58.151 42.2021C58.6072 40.8401 59.1676 39.4717 59.7606 38.0837C60.3666 36.7087 61.0443 35.3338 61.7741 33.9914C62.517 32.6556 63.299 31.3458 64.1461 30.1011C64.9997 28.863 65.8664 27.664 66.8048 26.5823C66.9155 26.4455 67.0328 26.3086 67.1436 26.1718C67.2609 26.0415 67.3782 25.9111 67.4955 25.7808C67.7301 25.5201 67.9647 25.2595 68.1927 25.0054C68.4338 24.7577 68.6684 24.5166 68.903 24.2755C69.0203 24.1582 69.1376 24.0344 69.2549 23.9171C69.3787 23.7998 69.496 23.689 69.6198 23.5783C69.8609 23.3502 70.0955 23.1352 70.3236 22.9136C70.5647 22.7051 70.7993 22.5031 71.0339 22.3011C71.49 21.8905 71.9723 21.5386 72.4219 21.1868C72.6434 21.0043 72.878 20.8479 73.0996 20.6915C73.3211 20.5351 73.5362 20.3787 73.7512 20.2289C74.1878 19.9421 74.6114 19.688 74.9958 19.4404C75.7973 18.9777 76.5076 18.5867 77.1137 18.313C77.7066 18.0068 78.1954 17.8308 78.5212 17.6875C78.8535 17.5506 79.0295 17.4789 79.0295 17.4789C79.0295 17.4789 78.8535 17.5571 78.5342 17.7005C78.2149 17.8504 77.7262 18.0524 77.1462 18.3717C76.5533 18.6649 75.8625 19.0755 75.0806 19.5642C74.7026 19.8248 74.2921 20.092 73.8685 20.3918C73.66 20.5482 73.4515 20.7045 73.2364 20.8675C73.0214 21.0304 72.7933 21.1933 72.5783 21.3823C72.1482 21.7472 71.679 22.1121 71.2424 22.5356C71.0143 22.7442 70.7863 22.9527 70.5582 23.1612C70.3366 23.3828 70.1086 23.6108 69.8805 23.8389C69.7632 23.9562 69.6524 24.067 69.5351 24.1843C69.4243 24.3081 69.3136 24.4319 69.1963 24.5492C68.9747 24.7968 68.7466 25.0445 68.5186 25.2921C68.3035 25.5527 68.082 25.8134 67.8539 26.0806C67.7431 26.2109 67.6323 26.3477 67.5216 26.478C67.4108 26.6214 67.3065 26.7583 67.1957 26.8951C66.316 27.9964 65.4885 29.2084 64.6935 30.453C63.8985 31.7042 63.1686 33.0205 62.4844 34.3563C61.8067 35.7052 61.1942 37.0737 60.6338 38.4486C60.0929 39.8236 59.5911 41.192 59.1871 42.5409C59.0764 42.8732 58.9786 43.2121 58.8874 43.5444C58.7961 43.8768 58.6984 44.2091 58.6072 44.5284C58.4443 45.1865 58.2618 45.8251 58.1315 46.4507C58.0598 46.7635 57.9946 47.0763 57.923 47.3761C57.8643 47.6823 57.8056 47.9821 57.747 48.2818C57.6232 48.8748 57.5385 49.4483 57.4473 50.0087C57.3495 50.5626 57.2974 51.0969 57.2257 51.5987C57.1605 52.1004 57.1214 52.5891 57.0758 53.0388C57.0041 53.9445 56.9455 54.7396 56.9325 55.3782C56.8999 56.0168 56.9129 56.5446 56.9129 56.8965C56.9129 57.2549 56.9129 57.4438 56.9129 57.4438L55.3164 57.4308Z" fill="#B3D47B"/>
<path d="M46.1153 58.2584C47.992 58.0889 50.2206 57.8218 52.8402 58.0433C55.4663 58.2453 58.4117 58.708 61.5721 59.4834C64.7325 60.2589 68.1276 61.2494 71.6334 62.5722C73.3798 63.2434 75.1587 63.9863 76.9442 64.8073C77.837 65.2178 78.7362 65.6414 79.6355 66.0845C80.5152 66.5211 81.3884 67.0164 82.2681 67.5246C85.7935 69.5903 89.3318 71.9558 92.9158 74.3799C96.4933 76.8105 100.103 79.3193 103.713 81.8411C110.921 86.8848 118.115 91.9675 124.905 96.6528C131.695 101.345 138.094 105.645 143.691 109.158C149.282 112.67 154.085 115.4 157.63 116.925C159.396 117.694 160.856 118.144 161.879 118.287C162.393 118.333 162.778 118.431 163.045 118.45C163.182 118.463 163.28 118.457 163.345 118.45C163.41 118.444 163.449 118.437 163.449 118.437C163.449 118.437 163.416 118.437 163.345 118.45C163.28 118.457 163.175 118.457 163.045 118.444C162.778 118.424 162.393 118.32 161.885 118.261C160.862 118.105 159.422 117.622 157.676 116.827C154.17 115.238 149.426 112.435 143.906 108.825C138.381 105.215 132.073 100.81 125.367 96.0012C118.662 91.1921 111.572 85.9855 104.45 80.8115C100.892 78.2245 97.3209 75.644 93.776 73.1483C92.0036 71.8971 90.2376 70.6655 88.4717 69.473C86.7057 68.2805 84.9463 67.1206 83.1543 66.0389C82.2616 65.5046 81.3558 64.9832 80.424 64.5141C79.5117 64.0514 78.5994 63.6083 77.6871 63.1847C75.869 62.3441 74.064 61.5752 72.2785 60.8845C68.7271 59.49 65.2734 58.3561 62.0087 57.6263C58.744 56.8899 55.6878 56.4598 52.9575 56.2969C50.2271 56.1405 47.4707 55.9385 45.5158 56.1666C43.5869 56.3947 42.6355 56.3882 41.5017 56.5576C41.417 57.0789 41.0064 58.6819 40.7393 59.2163C40.9608 59.1576 41.5212 59.0012 41.8536 58.923C42.8441 58.708 44.2385 58.4213 46.1153 58.2584Z" fill="#B3D47B"/>
<path d="M93.4116 131.711C93.9786 134.252 93.8157 136.455 93.8157 136.455C89.7169 135.158 86.4 130.701 86.4 130.701C88.2572 135.295 82.0015 138.67 82.0015 138.67C82.2947 134.604 78.7563 130.453 78.7563 130.453C78.0982 137.139 74.9182 135.295 74.9182 135.295C75.5568 129.463 71.7838 127.195 71.7838 127.195C75.622 131.998 68.9231 140.071 68.9231 140.071C70.7021 137.198 68.8775 131.183 68.8775 131.183C68.3562 135.868 61.6052 138.82 61.6052 138.82C63.6905 136.018 59.722 125.39 59.722 125.39C59.2659 131.085 57.0503 131.854 55.7079 131.783C55.8187 132.786 55.8708 133.803 55.8448 134.8C55.8187 135.94 55.6949 137.087 55.4473 138.201C67.6264 145.369 101.525 143.147 99.0353 139.615C98.5857 138.977 98.1816 138.325 97.8232 137.673L93.4116 131.711Z" fill="#4E7C39"/>
<path d="M45.4644 113.406C47.882 122.66 42.8904 127.729 42.8904 127.729C42.0889 117.987 34.3409 114.306 36.5956 116.254C36.6868 116.332 36.7716 116.417 36.8497 116.515C38.6874 118.893 36.6477 127.032 36.6477 127.032C30.6592 126.589 28.789 113.387 28.789 113.387C27.6943 116.41 30.8286 126.322 25.5113 124.041C23.3283 123.103 23.009 110.402 23.009 110.402C20.3047 113.087 19.0405 116.078 18.6365 117.192C18.7017 118.176 18.6886 119.167 18.5518 120.157C18.4605 120.848 18.3367 121.545 18.1738 122.236C24.5012 128.805 46.709 137.419 48.1296 132.252C48.892 129.469 49.876 125.853 50.7231 122.008C48.0123 116.723 45.4644 113.406 45.4644 113.406Z" fill="#4E7C39"/>
<path d="M11.7809 114.71C13.5924 113.732 15.2215 112.507 16.7007 111.1C17.0852 104.147 20.2912 94.3917 20.2912 94.3917C17.2416 96.3466 13.6445 107.151 13.6445 107.151C11.7027 101.749 16.0817 94.4178 16.0817 94.4178C12.3608 97.3501 11.9829 101.11 11.9829 101.11C9.81292 100.289 10.7773 82.988 10.7773 82.988C8.78334 85.2753 6.05949 96.2945 6.05949 96.2945C3.7527 93.7987 7.20637 85.3079 7.20637 85.3079C4.02638 88.6573 1.485 94.8804 1.485 94.8804C0.820328 93.9616 1.19177 91.8047 2.14316 89.0874C1.1266 91.355 0.442377 93.6358 0.129592 95.8644C-1.43434 107.222 11.7809 114.71 11.7809 114.71Z" fill="#4E7C39"/>
</svg>
