<svg width="164" height="240" viewBox="0 0 164 240" fill="none" xmlns="http://www.w3.org/2000/svg">
<path d="M139.889 65.572C143.108 68.1355 146.304 71.6137 149.084 75.9163C151.87 80.2069 154.241 85.3039 155.962 90.9485C157.683 96.593 158.76 102.791 158.995 109.242C159.206 115.741 159.115 122.481 158.748 129.311C158.381 136.147 157.737 143.073 156.871 149.976C155.156 163.786 152.544 177.482 150.053 190.312C148.813 196.733 147.603 202.937 146.611 208.859C145.618 214.774 144.841 220.412 144.516 225.654C144.36 228.272 144.318 230.799 144.426 233.194C144.486 234.391 144.577 235.559 144.721 236.69C144.865 237.822 145.058 238.917 145.293 239.964C145.299 239.976 145.299 239.988 145.305 240H145.997C145.985 239.94 145.967 239.88 145.955 239.819C145.744 238.79 145.576 237.719 145.455 236.606C145.329 235.493 145.245 234.343 145.196 233.158C145.106 230.793 145.172 228.296 145.353 225.702C145.72 220.509 146.544 214.912 147.591 209.021C148.639 203.136 149.896 196.944 151.202 190.535C152.508 184.132 153.85 177.507 155.089 170.749C156.323 163.991 157.46 157.095 158.375 150.168C159.296 143.236 160 136.28 160.421 129.407C160.842 122.529 160.987 115.753 160.824 109.182C160.662 102.563 159.633 96.1898 157.924 90.3527C156.215 84.5216 153.826 79.208 150.967 74.6947C148.109 70.1755 144.781 66.4686 141.375 63.7065C140.527 63.0145 139.672 62.3886 138.824 61.8049C137.975 61.2272 137.133 60.7097 136.302 60.2343C134.647 59.2955 133.041 58.5734 131.56 58.0138C128.588 56.8945 126.114 56.4432 124.435 56.2085C124.02 56.1423 123.635 56.1122 123.304 56.0761C122.967 56.034 122.708 56.0159 122.504 56.0039C122.293 55.9798 122.131 55.9858 122.022 56.034C121.908 56.0701 121.854 56.1122 121.854 56.1122L121.691 58.3748C121.691 58.3748 121.74 58.429 121.848 58.4832C121.95 58.5433 122.113 58.5674 122.323 58.5734C122.534 58.5915 122.805 58.6035 123.088 58.6336C123.382 58.6637 123.713 58.6878 124.104 58.7479C125.657 58.9525 127.944 59.3437 130.7 60.3546C132.078 60.8601 133.564 61.5161 135.117 62.3706C135.893 62.7978 136.681 63.2792 137.476 63.8088C138.282 64.3504 139.088 64.9341 139.889 65.572Z" fill="#61863A"/>
<path d="M148.555 76.3436C151.341 80.6342 153.712 85.7312 155.433 91.3758C157.154 97.0203 158.231 103.219 158.466 109.669C158.676 116.175 158.586 122.908 158.219 129.738C157.852 136.568 157.202 143.501 156.341 150.403C154.626 164.214 152.015 177.91 149.523 190.739C148.284 197.16 147.074 203.365 146.081 209.286C145.088 215.201 144.312 220.84 143.987 226.081C143.831 228.699 143.783 231.226 143.897 233.621C143.951 234.819 144.047 235.986 144.192 237.118C144.318 238.111 144.481 239.073 144.679 240H145.377C145.191 239.049 145.04 238.062 144.926 237.039C144.799 235.926 144.715 234.777 144.667 233.597C144.577 231.232 144.643 228.735 144.824 226.141C145.191 220.948 146.015 215.352 147.062 209.46C148.109 203.575 149.373 197.383 150.673 190.974C151.979 184.571 153.321 177.946 154.56 171.188C155.794 164.43 156.931 157.534 157.846 150.608C158.766 143.675 159.471 136.719 159.892 129.847C160.313 122.969 160.457 116.193 160.295 109.621C160.132 103.002 159.103 96.6292 157.394 90.792C155.685 84.9549 153.296 79.6473 150.438 75.1341C147.58 70.6148 144.252 66.9079 140.846 64.1458C139.997 63.4538 139.143 62.828 138.294 62.2442C137.446 61.6666 136.603 61.149 135.773 60.6736C134.118 59.7349 132.511 59.0128 131.031 58.4531C128.058 57.3338 125.585 56.8825 123.906 56.6478C123.491 56.5816 123.106 56.5515 122.775 56.5154C122.438 56.4733 122.179 56.4553 121.974 56.4432C121.764 56.4192 121.601 56.4252 121.493 56.4733C121.379 56.5094 121.325 56.5515 121.325 56.5515L121.162 58.8142C121.162 58.8142 121.21 58.8683 121.319 58.9225C121.421 58.9827 121.583 59.0067 121.788 59.0128C121.999 59.0308 122.269 59.0429 122.552 59.0729C122.847 59.103 123.178 59.1271 123.569 59.1873C125.122 59.3919 127.408 59.783 130.165 60.788C131.543 61.2935 133.029 61.9494 134.582 62.8039C135.358 63.2312 136.146 63.7126 136.946 64.2421C137.741 64.7777 138.547 65.3614 139.354 65.9993C142.579 68.5628 145.774 72.047 148.555 76.3436Z" fill="#B3D47B"/>
<path d="M22.2133 53.7049C16.2317 58.9102 13.3854 78.1968 13.8728 80.1225C14.3602 82.0481 50.9958 76.211 49.3289 81.7533C47.668 87.2956 20.1432 84.6117 16.4183 85.1111C9.84097 85.9957 4.75003 95.1787 3.66083 98.2658C1.44633 104.554 0.60386 116.168 0.0141293 118.124C-0.575602 120.08 17.4654 127.764 22.2915 127.084C27.1177 126.398 34.8925 119.845 35.5785 117.564C36.2585 115.284 45.7002 104.476 45.5378 109.759C45.3753 115.043 29.621 131.989 28.6702 132.771C27.7255 133.553 44.6532 137.85 49.5636 138.951C53.4389 139.818 63.1454 138.03 65.3479 126.501C68.2424 111.324 69.6566 101.726 75.7825 98.2658C83.9365 93.6562 73.8388 123.233 71.3596 126.753C68.8803 130.274 68.1582 135.034 65.0591 139.439C61.96 143.838 115.589 146.215 112.755 130.791C109.921 115.368 101.448 109.266 104.186 103.694C106.93 98.1213 112.051 99.5295 111.588 106.269C111.046 114.146 114.091 125.472 115.914 132.097C117.509 137.904 145.437 126.26 147.399 119.743C149.354 113.22 131.861 99.0781 129.737 93.8187C127.613 88.5593 131.861 81.3682 134.136 86.8202C136.411 92.2722 140.858 108.442 152.213 114.568C152.213 114.568 165.416 107.088 163.845 95.7444C162.274 84.4011 151.13 71.8121 134.695 66.1675C118.261 60.523 122.684 54.7219 124.243 50.8345C124.243 50.8345 137.097 13.6754 119.387 4.69709C95.9297 -7.19983 68.8382 7.04398 64.9929 9.04185C57.4949 12.9353 60.1426 18.0744 60.1426 18.0744C60.1426 18.0744 88.871 24.1582 98.1863 37.8424C100.822 41.7238 96.5495 44.0526 93.9077 42.1932C91.266 40.3337 79.7963 27.6424 70.6976 25.9755C61.5989 24.3087 44.25 26.2704 40.158 28.9242C30.4575 35.2187 28.4356 46.6944 28.4356 46.6944C28.4356 46.6944 45.3994 51.0692 54.3657 51.9839C63.332 52.8986 73.9953 57.5322 73.2431 60.1378C72.6473 62.2019 69.452 61.6182 62.8626 59.8791C59.1858 58.9042 28.4235 48.2951 22.2133 53.7049ZM104.18 73.3225L104.204 73.3827C105.823 77.0475 108.464 81.3561 108.868 85.5625C109.524 89.1069 107.351 94.0895 103.578 90.0998C101.665 87.8432 101.111 82.0602 101.081 79.5207C100.9 75.3926 100.69 65.1927 104.18 73.3225ZM82.5765 75.868L82.6006 75.8921C84.7368 78.1788 85.6696 84.5214 86.163 87.7108C86.506 90.4368 83.768 96.0573 80.1634 93.59C78.0151 92.0796 78.9839 85.3398 79.4112 83.017C79.4353 81.4644 79.9287 79.5448 80.3439 78.2209C80.9156 76.4096 81.4753 74.9774 82.5765 75.868ZM80.2477 55.1612C77.8285 55.0529 66.726 51.689 72.4488 47.9821C76.0654 45.5811 84.8993 54.8122 80.2477 55.1612ZM56.0506 87.4761C59.5529 85.4662 58.4998 92.218 55.9604 93.4938C54.2273 94.3663 52.6025 93.3734 53.1742 91.3996C53.4751 90.5993 55.4609 87.9214 56.0506 87.4761ZM54.1972 73.1179C56.4357 74.7728 56.4538 76.6563 53.5593 77.1979C52.3437 77.3243 47.4093 76.3675 46.4585 75.8921C41.6142 72.7148 50.9236 70.6988 54.1972 73.1179Z" fill="#61863A"/>
<path d="M72.4427 47.9884C71.889 48.3434 71.534 48.6985 71.2752 49.0475C70.848 48.3254 70.3906 47.6213 69.9814 46.9834C71.3775 46.5923 72.6473 46.3817 73.8628 45.8581C72.9421 45.1962 72.551 43.7941 71.9432 43.084C73.6101 42.3257 75.5297 43.1442 77.2688 43.8362C76.2458 42.5424 74.9821 40.7973 74.8558 39.0281C77.2568 38.7994 79.7541 41.1523 81.6016 42.4762C80.7892 40.4964 79.9226 38.1976 80.061 36.0553C81.7279 36.5909 87.6734 43.6135 87.6734 43.6135C88.1728 43.6978 89.7435 40.4723 89.7435 40.4723C91.3201 41.8804 94.9006 45.5332 94.9006 45.5332C94.9006 45.5332 96.9406 45.479 97.2715 43.6496C98.6917 44.3898 99.3657 45.5813 100.106 45.2443C100.106 45.2443 102.952 40.1173 102.176 34.0635C102.73 34.4607 104.15 35.2008 104.758 35.9169C105.365 34.6773 105.48 33.3594 105.137 32.2763C105.877 32.8058 106.978 33.6001 107.64 34.6352C108.753 33.4738 109.174 31.8791 109.818 30.0497C111.846 31.506 111.016 35.3814 112.015 37.4936C113.682 34.7796 114.217 32.0957 114.332 28.8221C116.679 30.2242 117.274 34.8458 118.454 37.0904C118.983 36.3562 120.385 35.9591 120.777 35.4054C121.12 36.4886 121.908 37.3371 121.932 38.4684C125.482 36.4104 126.65 32.6493 128.618 29.2975C128.154 36.0313 126.656 42.4942 125.543 46.5562C124.881 45.5693 124.177 44.6426 123.322 43.9385C122.263 45.4128 121.806 47.6032 120.614 49.2581C118.929 46.9353 118.147 44.1311 116.468 41.8082C116.143 43.8121 115.325 45.7378 114.127 47.3986C112.917 45.9725 111.973 44.1732 111.082 42.6928C110.787 43.8843 110.865 45.3286 110.438 46.7066C109.782 45.6776 109.205 44.1431 108.103 43.3488C106.563 45.8762 106.424 49.9682 105.756 52.8446C104.758 50.7324 104.078 48.5661 104.035 46.2974C102.08 48.2471 103.729 51.3884 102.826 53.8135C101.43 52.2489 100.304 50.3232 98.6436 49.1317C98.7218 50.582 98.9806 52.1646 98.7399 53.669C96.7661 52.5257 95.5324 49.9682 93.8234 48.4577C93.8956 49.908 94.5275 51.7554 94.1002 53.1275C92.0181 51.3522 90.3392 49.0294 87.9923 47.6213C88.1428 50.5218 88.1066 53.296 87.6252 56.2988C85.489 55.7692 83.6235 54.5476 81.427 54.6138C82.6546 52.5799 75.5899 45.8942 72.4427 47.9884Z" fill="#395628"/>
<path d="M48.1553 60.6435C51.1461 60.1501 53.8359 58.6938 56.6402 57.9837C59.7272 58.9164 62.014 59.6566 62.8624 59.8793C69.4518 61.6184 72.6411 62.2081 73.2429 60.138C73.6521 58.7058 70.6312 56.6658 66.3286 54.9628C67.2072 54.6259 68.0196 54.3069 68.7236 54.0421C67.147 52.3512 63.5244 53.2358 61.4724 52.5979C63.9817 51.0514 67.0387 51.6591 70.0716 51.3282C69.199 50.9852 67.4479 50.1186 67.7127 48.9753C68.6274 49.4266 69.7286 49.8057 70.8479 50.0885C70.7576 52.8747 78.3038 55.0651 80.2535 55.1554C80.4942 55.1374 80.6868 55.0832 80.8613 55.017C81.3848 56.1002 82.0829 57.1412 82.3898 58.1161C81.7579 58.2184 80.2234 58.7961 79.2185 58.6336C79.5073 59.3979 79.399 60.7157 79.6878 61.486C76.6248 62.6354 73.0684 61.7568 69.9753 63.7246C70.5289 64.1217 70.6854 65.0725 70.9201 65.5178C65.1131 65.8187 58.7343 64.5911 53.0115 64.3865C55.4126 64.1578 57.7896 62.7918 60.0402 61.6124C56.4296 60.4148 52.5181 62.3525 48.9857 60.6555L48.1553 60.6435Z" fill="#395628"/>
<path d="M102.603 114.61C102.32 117.342 102.784 120.188 102.224 122.728C99.8531 120.188 97.6085 116.897 94.9246 115.38C95.2375 117.282 95.5444 119.183 95.8574 121.079C93.9197 119.689 91.7112 118.1 89.6531 117.462C88.2992 121.097 83.9604 127.169 80.747 129.889C79.718 125.526 82.2935 124.04 80.7951 120.05C79.4051 115.916 80.759 116.066 80.7229 114.08C78.4061 107.383 83.1902 107.792 82.9735 100.505C83.7558 102.328 85.0195 104.073 86.6804 105.265C86.524 104.314 87.0415 103.008 87.1618 102.256C87.8719 103.604 88.4556 104.867 89.0875 105.746C89.1296 104.518 90.9229 102.863 90.4836 101.714C91.3501 104.013 91.1455 106.667 92.2046 108.689C93.679 104.302 93.697 98.9941 94.4191 94.4869C97.3738 99.1265 98.7398 105.975 102.29 109.784C102.772 106.781 102.507 103.652 103.187 100.366C103.458 101.088 104.138 101.937 104.757 102.683C104.559 102.99 104.366 103.327 104.186 103.694C102.597 106.925 104.77 110.325 107.429 115.615C107.05 116.855 106.418 118.178 106.021 119.177C104.451 118.455 103.187 116.71 102.603 114.61Z" fill="#66903D"/>
<path d="M106.009 101.221C105.991 99.8125 105.834 98.3382 106.051 96.9722C106.406 97.6462 107.513 98.4405 107.868 99.1145C108.585 97.5379 108.946 95.2812 109.108 93.3014C112.502 96.1598 114.151 100.282 116.678 103.772C118.387 100.811 114.999 94.9322 115.204 91.7248C116.113 92.7959 119.982 95.6664 121.089 96.4607C121.174 94.0055 119.958 91.0328 120.319 88.7822C122.251 90.1722 123.394 92.6696 125.723 93.506C125.765 92.2784 126.686 90.419 126.65 88.722C127.149 89.414 128.322 89.5344 129.201 89.8533C129.081 91.1531 129.225 92.5432 129.737 93.8189C130.441 95.5641 132.836 98.2841 135.652 101.377C133.263 101.467 130.892 101.209 129.015 100.336C128.75 100.137 128.491 99.9871 128.238 99.9269C128.485 100.077 128.744 100.216 129.015 100.336C130.597 101.57 132.246 105.042 132.926 106.606C129.243 105.638 127.281 103.014 124.676 101.973C125.897 104.946 128.539 107.684 129.009 110.536C126.24 108.55 121.866 104.145 120.818 109.682C119.639 108.412 118.213 108.646 116.907 108.129C116.636 115.826 116.552 113.888 111.696 111.734C111.527 109.814 111.479 107.966 111.599 106.276C111.966 100.842 108.717 98.8738 106.009 101.221Z" fill="#66903D"/>
<path d="M130.826 85.5928C131.265 83.3542 131.608 81.3443 131.608 81.3443C131.608 81.3443 136.062 83.0533 137.446 86.9829C137.765 87.8855 140.418 87.3018 139.913 85.0753L141.538 86.7061C143.433 86.3992 144.107 86.5917 146.286 86.4774C142.163 88.1262 144.059 89.3538 140.846 92.0738C142.043 92.9825 143.126 95.4256 143.126 95.4256C141.297 94.4869 140.316 95.3956 140.316 95.3956C138.715 97.8147 141.682 98.5789 142.681 100.234C141.857 100.462 140.948 100.679 139.991 100.86C137.042 95.2211 135.303 89.6066 134.136 86.8084C133.179 84.5036 131.861 84.4675 130.826 85.5928Z" fill="#66903D"/>
<path d="M98.1261 59.4821C79.4533 64.7355 32.3471 102.791 16.2498 111.619C12.218 113.834 10.5029 115.037 10.5029 115.037C11.0325 115.194 15.6179 115.994 18.025 115.049C23.0137 112.769 24.9995 110 28.6101 106.727C27.7736 109.062 27.0936 112.341 27.6773 114.441C30.6561 110.295 35.1934 103.646 44.1357 100.703C43.8167 101.732 42.3845 104.47 42.0656 105.493C47.6139 104.416 46.5126 99.8847 49.8043 97.6401C50.2677 100.92 49.5636 108.514 50.5023 111.282C51.742 108.4 52.3317 101.124 53.0899 98.3201C53.7278 96.2621 56.4598 96.5449 56.6644 93.3435C60.3773 95.1729 55.9303 100.787 58.9692 102.966C61.1235 98.2238 60.1005 94.9743 64.9387 91.7428C68.2906 95.8288 66.7079 103.501 65.5284 107.256C69.476 104.512 69.0187 91.3156 73.3033 87.6869C74.8378 89.6306 74.0795 92.4348 74.2721 95.0886C77.2388 93.3435 77.0162 87.5124 79.1103 84.8405C79.2066 84.1064 79.3149 83.4625 79.3992 82.9991C79.4232 81.4466 79.9167 79.5269 80.3319 78.2031C80.9096 76.3978 81.4632 74.9656 82.5705 75.8562L82.5945 75.8802C84.7308 78.167 85.6636 84.5096 86.157 87.6989C86.3616 89.2936 85.5011 91.8632 84.0388 93.2412C83.9786 93.7346 83.8883 94.2401 83.7379 94.7637C87.0236 94.7637 90.5078 79.5089 94.6961 81.26C98.1322 82.8908 96.6097 91.4359 98.1021 94.6072C98.6196 89.6607 99.7028 84.4494 101.087 79.6894C101.087 79.6353 101.081 79.557 101.081 79.5089C100.9 75.3868 100.69 65.1808 104.18 73.3167L104.204 73.3769C105.823 77.0416 108.464 81.3503 108.868 85.5566C108.994 86.2186 109.012 86.9347 108.946 87.6327C109.584 85.5025 110.198 83.1616 110.426 81.7715C119.326 84.7382 120.765 96.3704 123.689 100.42C126.716 92.1159 115.932 84.3712 118.249 77.6494C121.408 79.0816 125.085 82.1446 128.13 81.3984C123.984 78.4197 119.495 71.8364 128.822 75.1882C133.209 76.6625 137.006 78.2271 140.557 82.7825C146.286 74.8151 116.835 64.9762 122.756 57.9115C114.29 55.5947 103.043 58.098 98.1261 59.4821ZM55.9604 93.4939C54.2273 94.3665 52.6025 93.3736 53.1742 91.3998C53.4811 90.5994 55.4609 87.9216 56.0566 87.4763C59.5589 85.4664 58.4998 92.2182 55.9604 93.4939Z" fill="#86B04B"/>
<path d="M45.2007 73.726C45.1285 73.5334 45.0503 73.3469 44.9961 73.1423C45.1887 73.1724 45.3993 73.2025 45.6099 73.2325C45.4294 73.383 45.2849 73.5455 45.2007 73.726Z" fill="#395628"/>
<path d="M49.3287 81.7535C49.7258 80.4296 47.9446 79.7617 44.996 79.4728C45.5135 77.9082 44.2979 77.818 43.2388 76.3617C44.2438 76.5242 45.4533 76.6445 46.3499 76.1751C46.2777 75.9946 46.1935 75.8141 46.1092 75.6396C46.2236 75.7298 46.3078 75.8141 46.4462 75.9044C47.397 76.3798 52.3315 77.3366 53.5471 77.2102C56.4416 76.6626 56.4235 74.7851 54.1849 73.1302C53.0657 72.2998 51.2423 71.9989 49.5212 72.0771C48.5765 69.6941 47.2827 66.1377 46.9818 65.2531C49.3889 65.4095 52.4338 68.0272 57.9941 68.0092C59.9318 68.0032 66.0578 68.617 68.3385 67.8166C65.5042 69.6881 60.5276 72.3961 57.3743 73.6718C58.2348 74.2916 54.54 76.0127 59.8536 77.2222C56.929 79.2201 48.065 84.6781 44.8275 86.0802C45.0742 86.2607 46.356 87.4583 46.6869 87.5124C43.8646 90.1421 34.2544 96.4908 30.1504 96.3704C31.6849 93.9453 38.2682 92.3627 39.3514 89.0409C37.2753 88.3007 34.2905 90.1181 32.1001 89.2816C35.5843 87.38 40.0856 86.8324 43.6901 84.6179C46.7351 84.0703 48.9014 83.1917 49.3287 81.7535Z" fill="#395628"/>
<path d="M67.8935 70.9638C70.2705 69.5978 79.0021 65.6081 70.2344 63.2311C73.2071 61.0347 80.2899 64.212 81.5897 61.2333C82.7572 58.4411 78.1958 57.4 76.6191 55.703C81.4935 56.6959 86.8251 57.4481 91.3985 54.5837C97.1875 51.1958 90.9713 52.4595 88.7086 45.1059C92.241 46.8029 95.3401 51.8276 99.5585 51.7855C105.287 51.9841 103.669 44.119 104.866 40.5084C106.551 42.8312 107.195 47.7657 110.336 48.0666C110.661 46.0627 111.112 43.8723 111.853 42.4521C112.346 44.4861 113.05 47.7838 115.024 48.9271C116.245 46.4479 118.785 49.3965 124.339 38.2939C125.356 43.4932 119.254 51.593 121.8 56.2205L122.757 57.9055C116.45 58.1281 107.255 56.714 101.388 58.6457C94.4976 61.2393 87.3667 63.3394 80.6329 66.8838C77.8046 68.4845 74.3264 71.018 71.3176 73.3288C68.3208 75.6215 65.318 77.2824 62.4536 79.4427C57.0738 83.4986 52.6809 86.3028 48.3181 89.4561C47.265 90.2143 39.6707 95.4377 38.3047 96.5148C35.2236 98.952 23.3749 103.393 43.1308 90.774C43.54 90.5092 41.6204 90.2805 41.6204 90.2805C41.6204 90.2805 43.865 88.4211 47.3853 86.688C51.375 84.7262 56.1771 80.8208 51.8384 81.3383C52.8795 80.0866 54.9014 79.551 57.2423 78.3956C58.7166 77.6675 61.1658 75.6395 61.1658 75.6395C61.1658 75.6395 60.9191 74.9896 60.5219 74.6045C59.6975 73.5574 56.9293 74.1893 55.0217 73.8523C54.8171 73.6296 54.5764 73.413 54.2936 73.1964C58.1389 71.3911 63.6751 73.8403 67.8935 70.9638Z" fill="#86B04B"/>
<path d="M45.3938 116.283C46.4529 114.808 47.1449 113.069 47.8369 111.33C48.3304 113.364 49.1428 115.344 50.2199 116.957C50.8277 115.723 51.3874 114.165 51.6281 112.66C52.0974 113.557 53.1566 114.038 53.5718 114.616C54.4985 113.328 54.5587 111.691 55.1665 110.452C55.4011 110.903 56.0089 111.613 56.2436 112.064C56.7491 110.187 57.7601 108.4 58.4521 106.661C59.102 109.645 58.4882 112.835 59.77 115.711C60.9374 112.919 62.3215 109.441 64.7285 107.256C64.566 110.211 63.8138 113.587 63.519 116.728L63.2 116.782C59.8422 119.123 58.0369 123.967 56.1534 127.367C57.2967 125.394 57.6999 122.884 56.701 120.772C55.9066 121.879 55.1604 123.305 54.5526 124.539C54.1134 122.824 53.4815 120.971 52.3261 119.863C51.0022 121.705 50.0454 123.817 49.0405 125.604C48.4628 124.076 48.3364 122.307 47.1269 120.874C45.9354 122.535 44.7439 124.19 43.3117 125.406C43.3177 123.456 43.5885 121.133 43.5945 119.177C42.0961 119.538 40.375 121.271 38.666 121.386C40.5917 118.955 42.397 116.481 43.6787 114.345C44.0939 115.158 44.6295 115.88 45.3938 116.283Z" fill="#66903D"/>
<path d="M39.5258 124.822C39.8688 128.42 36.878 133.987 36.878 133.987C41.5116 132.452 42.0412 129.299 42.0953 128.396C41.993 132.97 39.3633 135.491 39.3633 135.491C41.3431 136.689 54.3533 125.267 54.3533 125.267C53.7816 128.24 46.7951 137.176 46.7951 137.176C50.177 137.453 54.7204 129.504 54.7204 129.504C54.0464 134.065 52.1328 137.224 52.1328 137.224C56.7423 137.062 63.446 121.681 63.446 121.681C64.5593 124.942 64.5593 127.969 64.3186 130.075C61.0088 138.404 52.9933 139.716 49.5632 138.945C46.1994 138.187 37.1909 135.937 32.1602 134.342C36.1198 129.913 39.5258 124.822 39.5258 124.822Z" fill="#86B04B"/>
<path d="M0.0200657 118.124C10.2922 116.421 15.9488 118.461 15.9488 118.461C11.6402 121.259 11.1347 123.311 11.1347 123.311L13.4635 122.92C18.8373 121.247 23.3987 122.511 23.3987 122.511C20.8051 123.486 19.3067 125.111 18.4341 126.687C11.4055 125.105 -0.461347 119.719 0.0200657 118.124Z" fill="#86B04B"/>
<path d="M55.1299 31.0848C55.1299 31.0848 63.2838 36.5849 66.4551 35.7786C66.5815 35.7424 66.7079 35.7003 66.8282 35.6462C69.6746 34.244 63.1575 40.346 52.3497 36.9761C52.3497 36.9761 56.2131 44.0889 67.0208 45.6475C67.0208 45.6475 56.9051 48.1689 44.3824 47.0135C44.3824 47.0135 40.6033 45.7438 49.365 49.9441C49.365 49.9441 46.994 50.1969 44.0032 50.2811C36.2044 48.7045 28.4355 46.7006 28.4355 46.7006C28.4355 46.7006 30.4575 35.2249 40.176 28.9184C44.268 26.2646 61.617 24.3029 70.7157 25.9698C71.9372 26.1924 73.207 26.6197 74.4887 27.1913C69.3196 26.8544 57.0375 26.5715 55.1299 31.0848Z" fill="#395628"/>
<path d="M10.8996 87.8193C11.5435 88.0118 12.9577 87.9938 15.3768 87.705L10.9959 90.0097C10.9959 90.0097 9.38919 92.3506 12.1994 91.1531L10.2076 93.7166C10.2076 93.7166 12.5966 95.0706 17.6695 93.4578L11.4171 99.2468C11.4171 99.2468 14.8352 101.287 19.7215 99.3491L15.6476 104.47C15.6476 104.47 19.2762 107.551 28.9767 96.918C28.9767 96.918 34.0315 103.092 9.65999 115.145C5.05647 117.42 2.09578 118.792 0.0136719 118.124C0.597385 116.168 1.44588 104.554 3.66038 98.2659C4.42462 96.1176 7.12053 91.0207 10.8996 87.8193Z" fill="#395628"/>
<path d="M40.146 61.2272C40.146 61.2272 33.0391 60.469 30.5057 57.4722C30.5057 57.4722 37.071 67.5638 43.5159 65.8127C43.5159 65.8127 39.8331 68.5748 33.7251 65.4516C33.7251 65.4516 30.6982 67.8166 37.7209 71.3189C37.7209 71.3189 32.0703 73.0459 27.7676 71.018C27.7676 71.018 30.4756 76.145 36.054 76.2714C36.054 76.2714 31.3 77.9383 25.8901 80.0023C19.4031 80.4597 14.0594 80.8388 13.8729 80.1107C13.3854 78.185 16.2318 58.8984 22.2133 53.6931C24.1811 51.9781 28.6101 51.8758 33.8575 52.5618C35.1934 55.7692 37.3478 59.795 40.146 61.2272Z" fill="#395628"/>
<path d="M117.925 13.6155C117.925 13.6155 123.894 26.9145 124.219 33.8589C124.219 33.8589 106.31 8.92773 101.382 10.0169C101.382 10.0169 107.297 15.1921 109.885 19.7716C109.885 19.7716 101.815 12.7249 98.3671 13.9404C98.3671 13.9404 109.416 21.3542 111.245 24.3029C111.245 24.3029 92.8188 15.9564 91.2242 17.7496C91.2242 17.7496 95.1717 19.7294 97.1335 24.6639C97.1335 24.6639 90.6224 17.196 84.1414 16.8109C84.1414 16.8109 94.6723 24.9949 95.7976 28.8462C95.7976 28.8462 75.6986 13.3447 71.1974 17.1118C71.1974 17.1118 85.4653 23.5747 88.0228 28.3949C88.0228 28.3949 86.1874 27.4802 83.4433 26.2466C72.3648 20.6562 60.155 18.0686 60.155 18.0686C60.155 18.0686 57.5132 12.9295 65.0052 9.03605C68.8505 7.03818 95.942 -7.20563 119.399 4.69129C124.761 7.41128 127.318 12.7068 128.281 18.7786C125.489 16.1128 121.607 13.2966 117.925 13.6155Z" fill="#395628"/>
<path d="M113.785 57.4361C113.785 57.4361 113.839 57.3519 113.935 57.1954C114.031 57.0329 114.176 56.8283 114.356 56.4673C114.549 56.1243 114.729 55.709 114.916 55.2336C115.09 54.7462 115.265 54.1926 115.391 53.5788C115.421 53.4223 115.451 53.2659 115.488 53.1094C115.512 52.9469 115.536 52.7844 115.56 52.616C115.614 52.285 115.632 51.942 115.662 51.5869C115.698 50.8829 115.704 50.1367 115.65 49.3785C115.602 48.6202 115.524 47.8379 115.403 47.0616C115.289 46.2794 115.144 45.491 114.988 44.7148C114.675 43.1562 114.308 41.6157 113.983 40.1654C113.827 39.4433 113.67 38.7452 113.538 38.0773C113.405 37.4153 113.297 36.7835 113.201 36.1998C113.159 35.9049 113.117 35.6281 113.08 35.3573C113.044 35.0865 113.02 34.8338 112.99 34.5991C112.948 34.1177 112.912 33.7024 112.894 33.3594C112.87 33.0164 112.876 32.7456 112.87 32.5591C112.87 32.3725 112.864 32.2702 112.864 32.2702C112.864 32.2702 112.858 32.3725 112.852 32.5531C112.846 32.7396 112.822 33.0104 112.828 33.3534C112.816 33.7024 112.828 34.1177 112.846 34.6051C112.858 34.8458 112.87 35.1046 112.888 35.3753C112.912 35.6461 112.93 35.929 112.954 36.2238C113.008 36.8136 113.08 37.4575 113.177 38.1314C113.267 38.8054 113.375 39.5155 113.49 40.2497C113.718 41.718 113.995 43.2765 114.206 44.8351C114.314 45.6174 114.404 46.3937 114.471 47.1579C114.543 47.9222 114.567 48.6744 114.567 49.3965C114.573 50.1186 114.519 50.8107 114.446 51.4606C114.392 51.7795 114.362 52.0924 114.296 52.3933C114.266 52.5437 114.236 52.6882 114.206 52.8326C114.17 52.971 114.134 53.1094 114.091 53.2478C113.947 53.7894 113.76 54.2648 113.586 54.674C113.399 55.0772 113.219 55.4262 113.056 55.6789C112.918 55.9317 112.737 56.1664 112.635 56.3168C112.527 56.4673 112.473 56.5455 112.473 56.5455L113.785 57.4361Z" fill="#B3D47B"/>
<path d="M109.126 58.2425C109.126 58.2425 109.27 58.3387 109.541 58.5133C109.68 58.5975 109.842 58.7118 110.041 58.8382C110.215 58.9706 110.426 59.121 110.648 59.2895C110.883 59.446 111.13 59.6626 111.401 59.8853C111.677 60.1019 111.966 60.3607 112.273 60.6315C112.58 60.8963 112.899 61.2092 113.236 61.5221C113.567 61.847 113.922 62.1901 114.283 62.5511C115.011 63.2853 115.8 64.0796 116.642 64.9221C117.491 65.7645 118.411 66.6311 119.434 67.4675C120.451 68.304 121.583 69.0923 122.81 69.7543C124.008 70.3921 125.241 71.03 126.463 71.6619C128.912 72.9256 131.349 74.1953 133.588 75.4771C135.82 76.7648 137.848 78.0646 139.467 79.3284C141.092 80.5921 142.289 81.8437 142.981 82.8246C143.15 83.0713 143.3 83.294 143.421 83.4986C143.529 83.7032 143.637 83.8717 143.703 84.0221C143.836 84.317 143.908 84.4735 143.908 84.4735C143.908 84.4735 143.842 84.311 143.722 84.0161C143.661 83.8657 143.559 83.6912 143.457 83.4805C143.348 83.2699 143.204 83.0413 143.042 82.7885C142.38 81.7775 141.224 80.4717 139.63 79.1358C138.041 77.7999 136.049 76.4158 133.853 75.0438C131.656 73.6718 129.249 72.3118 126.848 70.9638C125.644 70.2898 124.447 69.6158 123.28 68.9298C122.142 68.2619 121.101 67.4736 120.15 66.6371C119.2 65.8067 118.333 64.9281 117.527 64.0676C116.726 63.201 115.962 62.3766 115.264 61.6184C114.909 61.2393 114.566 60.8722 114.235 60.5292C113.892 60.1922 113.585 59.8672 113.266 59.5724C112.953 59.2775 112.67 58.9947 112.382 58.754C112.099 58.5072 111.852 58.2786 111.593 58.08C111.34 57.8814 111.118 57.7069 110.925 57.5504C110.733 57.418 110.57 57.3037 110.444 57.2074C110.179 57.0209 110.041 56.9246 110.041 56.9246L109.126 58.2425Z" fill="#B3D47B"/>
<path d="M102.651 59.1993C102.651 59.1993 103.193 60.0538 104.138 61.5582C104.613 62.3104 105.215 63.2131 105.889 64.2601C106.575 65.2952 107.345 66.4626 108.182 67.7323C109.012 69.0021 109.939 70.3741 110.865 71.8424C111.335 72.5766 111.828 73.3228 112.304 74.099C112.779 74.8813 113.267 75.6757 113.76 76.482C114.241 77.3004 114.705 78.1369 115.192 78.9854C115.313 79.196 115.433 79.4126 115.553 79.6232C115.662 79.8459 115.776 80.0625 115.884 80.2792C116.107 80.7185 116.336 81.1577 116.558 81.597C116.673 81.8197 116.787 82.0363 116.895 82.259C116.949 82.3673 117.016 82.4816 117.058 82.59L117.214 82.933C117.425 83.3903 117.629 83.8476 117.84 84.311C118.261 85.2317 118.682 86.1524 119.104 87.0791C119.525 87.9998 119.946 88.9265 120.361 89.8473C120.572 90.3106 120.783 90.768 120.987 91.2253C121.186 91.6826 121.39 92.146 121.589 92.6033C122.389 94.4327 123.172 96.232 123.936 97.9771C124.128 98.4104 124.315 98.8437 124.502 99.2709C124.592 99.4876 124.688 99.6982 124.778 99.9088L124.917 100.228L125.043 100.547C125.206 100.974 125.374 101.395 125.5 101.816C125.567 102.027 125.639 102.238 125.705 102.442C125.765 102.653 125.825 102.863 125.88 103.068C126.337 104.741 126.638 106.36 126.872 107.864C127.101 109.369 127.252 110.753 127.366 111.986C127.48 113.22 127.546 114.291 127.583 115.182C127.625 116.072 127.631 116.77 127.637 117.246C127.631 117.721 127.631 117.974 127.631 117.974C127.631 117.974 127.643 117.721 127.655 117.246C127.661 116.764 127.673 116.066 127.649 115.182C127.631 114.291 127.595 113.214 127.51 111.98C127.426 110.741 127.312 109.35 127.119 107.84C126.921 106.324 126.656 104.693 126.241 102.984C126.186 102.773 126.132 102.557 126.078 102.34C126.018 102.123 125.952 101.913 125.886 101.696C125.765 101.257 125.609 100.829 125.452 100.396L125.332 100.065L125.2 99.7463C125.109 99.5297 125.025 99.313 124.935 99.0964C124.76 98.6631 124.58 98.2299 124.399 97.7846C123.677 96.0214 122.937 94.198 122.179 92.3446C121.992 91.8812 121.8 91.4179 121.607 90.9485C121.414 90.4851 121.216 90.0218 121.011 89.5584C120.614 88.6257 120.217 87.6929 119.82 86.7602C119.423 85.8274 119.025 84.8947 118.622 83.962C118.424 83.4986 118.225 83.0353 118.033 82.5719L117.882 82.2289C117.828 82.1025 117.774 82.0002 117.72 81.8799C117.611 81.6512 117.503 81.4225 117.395 81.1999C117.178 80.7485 116.961 80.2972 116.739 79.8459C116.63 79.6172 116.522 79.3946 116.414 79.1719C116.299 78.9553 116.179 78.7326 116.065 78.516C115.595 77.6494 115.144 76.7889 114.681 75.9525C114.205 75.122 113.73 74.3096 113.273 73.5153C112.815 72.715 112.334 71.9567 111.882 71.2045C110.98 69.7001 110.089 68.3161 109.289 67.0162C108.482 65.7285 107.742 64.543 107.086 63.4959C106.442 62.4428 105.865 61.5462 105.413 60.7819C104.505 59.2534 103.981 58.3809 103.981 58.3809L102.651 59.1993Z" fill="#B3D47B"/>
<path d="M87.042 64.1638C87.042 64.1638 87.5415 65.1387 88.408 66.8417C89.2685 68.5447 90.4901 70.9818 91.7719 73.9726C92.4158 75.471 93.0597 77.1078 93.6434 78.877C94.2331 80.6402 94.7506 82.5297 95.1418 84.5216C95.5269 86.5074 95.7857 88.5955 95.8699 90.7258C95.918 91.7909 95.9241 92.8681 95.888 93.9453C95.8819 94.4868 95.8458 95.0224 95.8218 95.57L95.7014 97.2008C95.5209 99.3672 95.2802 101.54 95.0034 103.676C94.7085 105.806 94.4016 107.9 94.0405 109.916C93.8781 110.927 93.6735 111.914 93.505 112.889C93.3064 113.858 93.1138 114.802 92.9273 115.723C92.5301 117.559 92.139 119.292 91.7358 120.886C91.3386 122.475 90.9354 123.925 90.5623 125.207C90.3698 125.845 90.1832 126.441 90.0207 126.994C89.8462 127.542 89.6717 128.047 89.5213 128.499C89.2264 129.413 88.9496 130.111 88.7751 130.593C88.5946 131.074 88.4983 131.333 88.4983 131.333C88.4983 131.333 88.6006 131.08 88.7871 130.599C88.9737 130.123 89.2685 129.425 89.5814 128.523C89.7439 128.071 89.9305 127.572 90.117 127.03C90.2975 126.483 90.4961 125.887 90.7007 125.255C91.0979 123.985 91.5372 122.535 91.9705 120.953C92.4097 119.37 92.849 117.643 93.2883 115.813C93.4929 114.893 93.7096 113.954 93.9262 112.985C94.1248 112.016 94.3474 111.029 94.534 110.018C94.9372 108.003 95.2982 105.908 95.6412 103.778C95.9722 101.642 96.2611 99.4695 96.4897 97.279C96.7244 95.1006 96.8628 92.8801 96.8087 90.7077C96.7726 88.5294 96.5559 86.3871 96.2069 84.335C95.8579 82.283 95.3644 80.3333 94.8048 78.516C94.2451 76.6986 93.6253 75.0077 93.0115 73.4732C91.7719 70.4041 90.5924 67.9189 89.768 66.1858C88.9315 64.4587 88.4561 63.4658 88.4561 63.4658L87.042 64.1638Z" fill="#B3D47B"/>
<path d="M64.0362 78.191C64.0362 78.191 64.1144 78.4017 64.2589 78.7868C64.3251 78.9793 64.3852 79.202 64.4695 79.4668C64.5357 79.7496 64.6259 80.0685 64.6921 80.4356C64.8486 81.1698 64.9569 82.0905 65.0291 83.1436C65.1013 84.2027 65.1194 85.4122 65.0712 86.7241C64.987 89.3598 64.644 92.4348 64.0964 95.7024C63.8196 97.3332 63.5006 99.0182 63.1275 100.721C62.7544 102.424 62.3452 104.145 61.8879 105.86C61.6652 106.715 61.4245 107.569 61.1778 108.418L60.9913 109.05L60.9792 109.086L60.9732 109.104C60.9853 109.08 60.9732 109.11 60.9732 109.11L60.9431 109.188L60.883 109.344L60.7746 109.657C60.6182 110.067 60.4858 110.488 60.3113 110.885C59.6794 112.492 58.9152 114.038 58.1329 115.495C57.7478 116.229 57.3325 116.927 56.9293 117.625C56.5141 118.305 56.117 118.979 55.7017 119.617C54.8894 120.904 54.089 122.102 53.3428 123.203C51.8444 125.4 50.5747 127.223 49.7142 128.517C49.2809 129.161 48.9439 129.672 48.7152 130.021C48.4866 130.37 48.3662 130.557 48.3662 130.557C48.3662 130.557 48.4926 130.37 48.7273 130.027C48.9559 129.684 49.305 129.179 49.7503 128.541C50.6349 127.265 51.9407 125.472 53.4872 123.299C54.2575 122.216 55.0879 121.031 55.9244 119.755C56.3516 119.123 56.7669 118.449 57.1941 117.775C57.6093 117.089 58.0366 116.391 58.4458 115.657C59.2642 114.201 60.0585 112.666 60.7325 111.035C60.9191 110.632 61.0575 110.223 61.226 109.814L61.3463 109.507L61.4065 109.351L61.4366 109.272L61.4486 109.236L61.4546 109.218L61.4667 109.182L61.6652 108.55C61.93 107.702 62.1888 106.853 62.4295 105.999C62.9229 104.29 63.3682 102.563 63.7774 100.86C64.1867 99.1566 64.5477 97.4656 64.8546 95.8228C65.4744 92.5432 65.8836 89.438 66.022 86.7481C66.0942 85.4062 66.1003 84.1666 66.0461 83.0653C65.9919 81.9641 65.8957 81.0013 65.7452 80.213C65.679 79.8218 65.5948 79.4668 65.5286 79.1599C65.4383 78.853 65.3661 78.5762 65.2999 78.3776C65.1615 77.9864 65.0893 77.7758 65.0893 77.7758L64.0362 78.191Z" fill="#B3D47B"/>
<path d="M34.6823 98.7414C34.6823 98.7414 34.6642 98.8497 34.6281 99.0423C34.592 99.2348 34.5439 99.5357 34.4596 99.8847C34.3814 100.234 34.2911 100.667 34.1467 101.154C34.0805 101.401 34.0083 101.66 33.918 101.931C33.8338 102.202 33.7435 102.49 33.6352 102.785C33.4306 103.381 33.1839 104.013 32.895 104.675C32.7506 105.006 32.6062 105.343 32.4377 105.686C32.3534 105.854 32.2752 106.029 32.1909 106.203C32.1007 106.378 32.0104 106.552 31.9201 106.727C31.5651 107.431 31.1559 108.141 30.7347 108.851C30.3014 109.561 29.8501 110.271 29.3687 110.963C28.8933 111.661 28.3818 112.335 27.8763 112.997C27.3648 113.653 26.8051 114.231 26.2154 114.76C25.6257 115.29 25.0239 115.765 24.4522 116.217C23.8805 116.668 23.339 117.095 22.8515 117.51C22.3641 117.92 21.9429 118.329 21.5878 118.708C21.2388 119.093 20.956 119.454 20.7514 119.761C20.6491 119.918 20.5648 120.062 20.4866 120.182C20.4144 120.309 20.3662 120.423 20.3181 120.507C20.2278 120.688 20.1797 120.784 20.1797 120.784C20.1797 120.784 20.2338 120.694 20.3241 120.513C20.3723 120.429 20.4264 120.321 20.4986 120.194C20.5769 120.074 20.6731 119.936 20.7754 119.785C20.9921 119.484 21.2749 119.135 21.636 118.768C22.003 118.407 22.4303 118.016 22.9298 117.619C23.4232 117.222 23.9829 116.812 24.5726 116.385C25.1623 115.952 25.7821 115.495 26.3959 114.977C27.0097 114.466 27.6175 113.876 28.1591 113.232C28.6947 112.588 29.2303 111.92 29.7357 111.234C30.2472 110.554 30.7287 109.844 31.192 109.14C31.6433 108.43 32.0826 107.726 32.4678 107.022C32.564 106.847 32.6603 106.673 32.7566 106.498C32.8469 106.324 32.9371 106.149 33.0274 105.975C33.2079 105.632 33.3704 105.289 33.5269 104.958C33.8398 104.29 34.1166 103.646 34.3453 103.044C34.4656 102.743 34.5679 102.448 34.6642 102.171C34.7665 101.895 34.8508 101.63 34.929 101.377C35.0915 100.878 35.2058 100.426 35.3021 100.059C35.3984 99.6862 35.4525 99.4094 35.5007 99.2108C35.5428 99.0182 35.5669 98.9159 35.5669 98.9159L34.6823 98.7414Z" fill="#B3D47B"/>
<path d="M41.1933 94.4086C41.1933 94.4086 40.6577 94.2402 39.7129 93.9393C39.4783 93.8671 39.2195 93.7828 38.9367 93.6925C38.6478 93.6143 38.3229 93.5421 37.9859 93.4639C37.3059 93.3074 36.5477 93.0908 35.6992 92.9764C35.2779 92.9102 34.8386 92.838 34.3813 92.7598C34.1586 92.7177 33.924 92.7056 33.6832 92.6816C33.4425 92.6575 33.2079 92.6394 32.9611 92.6154C32.7204 92.5913 32.4737 92.5733 32.221 92.5492C32.0946 92.5371 31.9682 92.5251 31.8418 92.5131C31.7155 92.5071 31.5831 92.5071 31.4567 92.501C30.9452 92.489 30.4217 92.483 29.8861 92.471C29.7537 92.4649 29.6213 92.4649 29.4829 92.4649C29.3505 92.471 29.2121 92.477 29.0797 92.483C28.8089 92.495 28.5381 92.5071 28.2613 92.5251C27.7137 92.5552 27.1601 92.5672 26.6065 92.6455C26.0528 92.7117 25.4932 92.7779 24.9336 92.8441C24.3739 92.9464 23.8203 93.0486 23.2607 93.1509L22.8454 93.2292C22.689 93.2533 22.5686 93.3014 22.4242 93.3315C22.1534 93.4097 21.8766 93.4639 21.6118 93.5722C21.341 93.6685 21.0702 93.7587 20.8054 93.861C20.5467 93.9694 20.2879 94.0777 20.0292 94.186C19.0122 94.6493 18.0373 95.1609 17.1166 95.6784C15.2692 96.7194 13.5842 97.7485 12.0979 98.5548C11.7308 98.7594 11.3637 98.946 11.0267 99.1265C10.6837 99.307 10.3528 99.4575 10.0459 99.6079C9.42002 99.8968 8.87242 100.137 8.40906 100.306C8.17437 100.384 7.96977 100.474 7.78924 100.529C7.60269 100.583 7.45225 100.631 7.31986 100.667C7.06712 100.739 6.92871 100.781 6.92871 100.781C6.92871 100.781 7.06712 100.745 7.31986 100.673C7.44623 100.637 7.60269 100.595 7.78924 100.541C7.97578 100.492 8.18039 100.408 8.41507 100.33C8.88445 100.174 9.43808 99.9389 10.0699 99.6681C10.3829 99.5237 10.7198 99.3732 11.0628 99.2047C11.4059 99.0302 11.7729 98.8557 12.146 98.6571C13.6504 97.8748 15.3534 96.8759 17.2189 95.8709C18.1517 95.3715 19.1265 94.878 20.1435 94.4448C20.4023 94.3425 20.655 94.2401 20.9138 94.1378C21.1725 94.0416 21.4373 93.9633 21.7021 93.8731C21.9548 93.7768 22.2437 93.7287 22.5145 93.6564C22.6469 93.6264 22.7913 93.5782 22.9176 93.5662L23.3329 93.5C23.8865 93.4097 24.4401 93.3134 24.9937 93.2232C25.5474 93.169 26.101 93.1148 26.6546 93.0607C27.2022 92.9945 27.7498 92.9885 28.2914 92.9704C28.5622 92.9584 28.827 92.9524 29.0978 92.9464C29.2302 92.9403 29.3626 92.9403 29.495 92.9343C29.6273 92.9403 29.7597 92.9464 29.8921 92.9524C30.4157 92.9704 30.9332 92.9945 31.4387 93.0125C31.565 93.0186 31.6914 93.0246 31.8178 93.0306C31.9441 93.0426 32.0645 93.0547 32.1909 93.0727C32.4376 93.1028 32.6783 93.1269 32.919 93.1509C33.1597 93.181 33.3944 93.2051 33.6291 93.2292C33.8638 93.2593 34.0924 93.2713 34.3151 93.3194C34.7604 93.3977 35.1937 93.4759 35.6029 93.5541C36.4333 93.6805 37.1675 93.9032 37.8294 94.0656C38.1544 94.1499 38.4673 94.2281 38.7501 94.3063C39.0329 94.4026 39.2917 94.4869 39.5264 94.5651C40.4652 94.878 40.9947 95.0586 40.9947 95.0586L41.1933 94.4086Z" fill="#B3D47B"/>
<path d="M71.5339 72.8835C71.5339 72.8835 71.3594 72.8113 71.0344 72.6669C70.872 72.5946 70.6674 72.5104 70.4327 72.4081C70.198 72.3058 69.9272 72.1915 69.6022 72.0711C69.2893 71.9507 68.9343 71.8184 68.5612 71.6739C68.1821 71.5295 67.7608 71.3971 67.3215 71.2467C66.8822 71.0902 66.4008 70.9518 65.9014 70.8014C65.6486 70.7292 65.3959 70.6449 65.1311 70.5727C64.8663 70.5005 64.5955 70.4283 64.3187 70.3561C63.2115 70.0552 61.9959 69.7844 60.7141 69.5136C59.4264 69.2609 58.0664 69.0141 56.6522 68.7975C55.2441 68.5748 53.7818 68.3763 52.3014 68.1717C51.5613 68.0694 50.8151 67.961 50.0689 67.8407C49.6958 67.7805 49.3227 67.7203 48.9496 67.6541L47.8363 67.4255C47.0901 67.275 46.35 67.1065 45.6038 66.9741C44.8516 66.8478 44.1054 66.7274 43.3652 66.6071L42.8116 66.5168C42.625 66.4927 42.4385 66.4687 42.2519 66.4506C41.8849 66.4085 41.5178 66.3603 41.1507 66.3182C40.4226 66.234 39.7065 66.1257 38.9904 66.0835C38.2803 66.0234 37.5822 65.9692 36.8962 65.915C36.5532 65.8789 36.2162 65.8729 35.8792 65.8609C35.5422 65.8488 35.2113 65.8368 34.8863 65.8248C34.5614 65.8127 34.2364 65.8007 33.9175 65.7887C33.6046 65.7766 33.2916 65.7586 32.9787 65.7646C32.3649 65.7646 31.7692 65.7706 31.1975 65.7706C30.0541 65.7526 29.0131 65.8308 28.0864 65.8729C27.623 65.897 27.1897 65.921 26.7926 65.9391C26.3954 65.9752 26.0283 66.0113 25.6973 66.0414C24.3735 66.1678 23.6152 66.24 23.6152 66.24C23.6152 66.24 24.3735 66.1858 25.6973 66.0835C26.0283 66.0595 26.3954 66.0294 26.7926 65.9993C27.1897 65.9872 27.623 65.9752 28.0864 65.9572C29.0131 65.9331 30.0541 65.8789 31.1915 65.915C31.7632 65.9211 32.3589 65.9331 32.9667 65.9391C33.2736 65.9331 33.5865 65.9572 33.9054 65.9752C34.2184 65.9933 34.5433 66.0113 34.8683 66.0294C35.1932 66.0474 35.5242 66.0655 35.8552 66.0835C36.1861 66.1016 36.5291 66.1136 36.8661 66.1557C37.5461 66.2279 38.2442 66.2941 38.9482 66.3664C39.6583 66.4205 40.3744 66.5409 41.0965 66.6372C41.4576 66.6913 41.8247 66.7395 42.1918 66.7936C42.3783 66.8177 42.5588 66.8478 42.7454 66.8718L43.299 66.9741C44.0332 67.1065 44.7673 67.2449 45.5135 67.3833C46.2537 67.5278 46.9939 67.7143 47.734 67.8708L48.8533 68.1235C49.2264 68.1957 49.5995 68.2619 49.9786 68.3341C50.7308 68.4665 51.471 68.5869 52.2112 68.7072C53.6915 68.9419 55.1418 69.1706 56.5439 69.4113C57.946 69.652 59.2879 69.9228 60.5577 70.1996C61.8274 70.4885 63.0189 70.7773 64.1081 71.0962C64.3789 71.1745 64.6437 71.2527 64.9084 71.3249C65.1672 71.4031 65.4199 71.4874 65.6607 71.5596C66.1541 71.7161 66.6175 71.8665 67.0507 72.023C67.478 72.1794 67.8872 72.3178 68.2543 72.4623C68.6213 72.6127 68.9583 72.7451 69.2592 72.8654C69.5661 72.9798 69.8369 73.1061 70.0716 73.2145C70.3063 73.3228 70.5109 73.407 70.6674 73.4853C70.9923 73.6297 71.1668 73.7079 71.1668 73.7079L71.5339 72.8835Z" fill="#B3D47B"/>
<path d="M95.1533 59.8311C95.1533 59.8311 94.9969 59.6807 94.702 59.4039C94.4071 59.1271 93.9679 58.7179 93.4323 58.1943C92.8907 57.6708 92.2408 57.0329 91.4886 56.2927C90.7304 55.5526 89.8819 54.7161 88.9551 53.8074C88.0104 52.9108 86.9874 51.9239 85.85 50.943C85.2964 50.4436 84.6826 49.9622 84.0808 49.4567C83.449 48.9753 82.8231 48.4638 82.1432 48.0004C81.4812 47.513 80.7651 47.0737 80.055 46.6103C79.3209 46.1891 78.5867 45.7378 77.8104 45.3647C77.6179 45.2624 77.4253 45.1661 77.2327 45.0698L76.9439 44.9254L76.649 44.793C76.2519 44.6185 75.8547 44.4379 75.4575 44.2634C75.0604 44.0889 74.6451 43.9445 74.2359 43.788C73.8267 43.6316 73.4175 43.4691 73.0083 43.3307C72.1899 43.0479 71.3776 42.759 70.5652 42.4702C69.7528 42.1873 68.9223 41.9406 68.11 41.6758C67.7008 41.5495 67.2976 41.4171 66.8944 41.2907C66.4912 41.1704 66.088 41.05 65.6848 40.9296C64.8845 40.695 64.0902 40.4603 63.3079 40.2316C61.7433 39.7923 60.2389 39.359 58.8067 38.9559C58.0905 38.7513 57.3985 38.5527 56.7245 38.3601C56.0506 38.1615 55.4067 37.969 54.7808 37.7884C54.161 37.6019 53.5593 37.4334 52.9936 37.2589C52.4279 37.0783 51.8984 36.9098 51.3929 36.7474C50.8934 36.5909 50.418 36.4405 49.9848 36.3021C49.5515 36.1516 49.1603 36.0192 48.7993 35.8929C47.3731 35.3934 46.5547 35.1106 46.5547 35.1106C46.5547 35.1106 47.3671 35.4175 48.7752 35.9651C49.1302 36.0975 49.5214 36.2479 49.9486 36.4104C50.3819 36.5608 50.8513 36.7233 51.3447 36.8978C51.8442 37.0723 52.3738 37.2589 52.9274 37.4514C53.487 37.644 54.0828 37.8305 54.6966 38.0352C55.3164 38.2337 55.9603 38.4444 56.6222 38.661C57.2902 38.8716 57.9762 39.0882 58.6863 39.3109C60.1065 39.7562 61.5988 40.2316 63.1454 40.719C63.9217 40.9718 64.704 41.2245 65.4983 41.4833C65.8955 41.6157 66.2926 41.742 66.6898 41.8744C67.087 42.0128 67.4841 42.1512 67.8873 42.2896C68.6877 42.5785 69.494 42.8372 70.3004 43.1442C71.1068 43.4511 71.9131 43.764 72.7255 44.0709C73.1347 44.2213 73.5259 44.3898 73.917 44.5523C74.3082 44.7208 74.7113 44.8712 75.0965 45.0517C75.4816 45.2383 75.8607 45.4188 76.2458 45.6054L76.5287 45.7438L76.8055 45.8942C76.986 45.9965 77.1786 46.0988 77.3591 46.1951C78.1053 46.5802 78.7973 47.0436 79.5014 47.4708C80.1814 47.9402 80.8614 48.3795 81.4932 48.879C82.1431 49.3484 82.7389 49.8599 83.3407 50.3473C83.9184 50.8588 84.4961 51.3402 85.0316 51.8517C86.1148 52.8446 87.0957 53.8436 88.0044 54.7582C88.901 55.691 89.7254 56.5455 90.4596 57.3037C91.1877 58.068 91.8316 58.7299 92.3672 59.2775C92.8967 59.8311 93.318 60.2403 93.6068 60.5292C93.8896 60.818 94.0461 60.9685 94.0461 60.9685L95.1533 59.8311Z" fill="#B3D47B"/>
<path d="M108.741 57.3519C108.741 57.3519 108.735 57.1653 108.723 56.8043C108.711 56.4492 108.699 55.9377 108.645 55.2517C108.608 54.5657 108.524 53.7533 108.422 52.8266C108.356 52.3632 108.302 51.8638 108.217 51.3462C108.127 50.8287 108.055 50.2811 107.941 49.7155C107.826 49.1498 107.718 48.5601 107.573 47.9583C107.507 47.6574 107.435 47.3505 107.363 47.0376C107.285 46.7307 107.2 46.4118 107.122 46.0988C106.966 45.461 106.761 44.8111 106.575 44.1491C106.472 43.8181 106.364 43.4872 106.256 43.1502C106.153 42.8192 106.039 42.4762 105.919 42.1392C105.461 40.7792 104.902 39.4072 104.312 38.0292C103.704 36.6511 103.03 35.2851 102.302 33.9432C101.556 32.6072 100.78 31.2954 99.931 30.0618C99.0825 28.8221 98.21 27.6306 97.2772 26.5414C97.1629 26.403 97.0486 26.2706 96.9342 26.1322C96.8139 25.9998 96.6995 25.8674 96.5852 25.7411C96.3505 25.4823 96.1158 25.2236 95.8871 24.9648C95.6464 24.7181 95.4117 24.4774 95.1771 24.2367C95.0567 24.1163 94.9424 23.996 94.828 23.8816C94.7077 23.7673 94.5873 23.659 94.467 23.5446C94.2323 23.322 93.9916 23.0993 93.7629 22.8827C93.5222 22.6781 93.2875 22.4735 93.0528 22.2689C92.5955 21.8597 92.1141 21.5046 91.6688 21.1556C91.4461 20.9751 91.2174 20.8186 90.9888 20.6622C90.7661 20.5057 90.5495 20.3493 90.3389 20.1988C89.9056 19.91 89.4843 19.6572 89.0932 19.4105C88.2929 18.9471 87.5828 18.562 86.981 18.2852C86.3913 17.9843 85.8978 17.8038 85.5729 17.6654C85.2419 17.527 85.0674 17.4548 85.0674 17.4548C85.0674 17.4548 85.2419 17.533 85.5608 17.6774C85.8858 17.8279 86.3672 18.0264 86.9449 18.3454C87.5346 18.6402 88.2267 19.0494 89.009 19.5369C89.3881 19.7956 89.7973 20.0604 90.2185 20.3613C90.4231 20.5177 90.6337 20.6742 90.8504 20.8367C91.067 20.9992 91.2896 21.1616 91.5063 21.3482C91.9396 21.7153 92.4029 22.0763 92.8422 22.4976C93.0709 22.7022 93.2935 22.9128 93.5282 23.1234C93.7509 23.346 93.9735 23.5747 94.2022 23.8034C94.3165 23.9177 94.4309 24.0321 94.5452 24.1464C94.6595 24.2668 94.7679 24.3931 94.8822 24.5135C95.1048 24.7602 95.3335 25.0069 95.5622 25.2597C95.7788 25.5184 96.0015 25.7832 96.2241 26.048C96.3325 26.1804 96.4468 26.3128 96.5611 26.4451C96.6694 26.5836 96.7778 26.722 96.8861 26.8604C97.7647 27.9616 98.5891 29.1711 99.3894 30.4108C100.184 31.6625 100.912 32.9803 101.598 34.3102C102.272 35.6582 102.892 37.0242 103.445 38.3962C103.981 39.7743 104.486 41.1343 104.89 42.4822C104.998 42.8192 105.1 43.1502 105.19 43.4812C105.281 43.8121 105.377 44.1431 105.467 44.4681C105.63 45.124 105.81 45.7618 105.943 46.3937C106.015 46.7066 106.081 47.0135 106.153 47.3204C106.213 47.6273 106.274 47.9282 106.334 48.2291C106.454 48.8188 106.538 49.3965 106.629 49.9501C106.725 50.5038 106.779 51.0393 106.851 51.5388C106.918 52.0443 106.954 52.5257 107.002 52.977C107.074 53.8797 107.128 54.674 107.146 55.3179C107.176 55.9558 107.17 56.4793 107.164 56.8344C107.164 57.1894 107.164 57.3759 107.164 57.3759L108.741 57.3519Z" fill="#B3D47B"/>
<path d="M117.924 58.1823C116.053 58.0138 113.826 57.749 111.203 57.9657C108.579 58.1703 105.636 58.6276 102.483 59.4039C99.3299 60.1802 95.9359 61.1671 92.4397 62.4909C90.6945 63.1649 88.9193 63.9051 87.1381 64.7235C86.2475 65.1327 85.3509 65.56 84.4482 65.9992C83.5696 66.4325 82.6971 66.932 81.8185 67.4435C78.2982 69.5015 74.7598 71.8665 71.1853 74.2856C67.6108 76.7107 64.0002 79.2201 60.4016 81.7415C53.1985 86.7782 46.0194 91.8571 39.2315 96.5389C32.4496 101.227 26.0588 105.517 20.4684 109.026C14.884 112.534 10.0879 115.26 6.54353 116.782C4.78036 117.547 3.32408 118.004 2.30108 118.142C1.78356 118.19 1.40445 118.287 1.13365 118.305C1.00126 118.317 0.898963 118.311 0.832769 118.305C0.766574 118.299 0.730469 118.293 0.730469 118.293C0.730469 118.293 0.766574 118.299 0.832769 118.305C0.898963 118.311 1.00126 118.311 1.13365 118.305C1.39843 118.287 1.78356 118.178 2.29506 118.124C3.31205 117.968 4.75629 117.486 6.50141 116.692C10.0037 115.109 14.7396 112.305 20.2578 108.701C25.776 105.096 32.0765 100.691 38.7741 95.889C45.4718 91.0869 52.5546 85.8876 59.6675 80.7124C63.2239 78.1309 66.7864 75.5553 70.3308 73.058C72.106 71.8063 73.8692 70.5787 75.6323 69.3872C77.3955 68.1957 79.1587 67.0403 80.9399 65.9571C81.8305 65.4216 82.7332 64.904 83.6659 64.4347C84.5806 63.9713 85.4893 63.532 86.3979 63.1108C88.2153 62.2683 90.0206 61.5041 91.7958 60.812C95.3462 59.4159 98.7883 58.2846 102.056 57.5565C105.317 56.8163 108.368 56.389 111.094 56.2266C113.82 56.0701 116.577 55.8655 118.526 56.0942C120.452 56.3228 121.403 56.3108 122.534 56.4853C122.618 57.0028 123.027 58.6035 123.298 59.1391C123.076 59.085 122.516 58.9225 122.185 58.8442C121.198 58.6276 119.802 58.3448 117.924 58.1823Z" fill="#B3D47B"/>
<path d="M70.6914 131.544C70.1257 134.083 70.2882 136.286 70.2882 136.286C74.3862 134.992 77.6959 130.539 77.6959 130.539C75.8425 135.124 82.0828 138.494 82.0828 138.494C81.7879 134.432 85.3203 130.286 85.3203 130.286C85.9762 136.96 89.1536 135.124 89.1536 135.124C88.5157 129.299 92.2827 127.03 92.2827 127.03C88.4495 131.826 95.1411 139.89 95.1411 139.89C93.3599 137.02 95.1893 131.014 95.1893 131.014C95.7068 135.69 102.453 138.644 102.453 138.644C100.37 135.846 104.336 125.231 104.336 125.231C104.787 130.918 107.002 131.688 108.344 131.622C108.236 132.621 108.181 133.638 108.205 134.631C108.23 135.774 108.356 136.911 108.603 138.025C96.4349 145.186 62.5856 142.965 65.0649 139.439C65.5162 138.801 65.9133 138.151 66.2804 137.501L70.6914 131.544Z" fill="#4E7C39"/>
<path d="M118.574 113.256C116.161 122.499 121.15 127.56 121.15 127.56C121.95 117.829 129.689 114.147 127.438 116.096C127.348 116.175 127.264 116.265 127.186 116.361C125.356 118.738 127.39 126.868 127.39 126.868C133.372 126.429 135.237 113.238 135.237 113.238C136.326 116.259 133.197 126.158 138.511 123.877C140.689 122.944 141.014 110.259 141.014 110.259C143.716 112.943 144.98 115.928 145.383 117.041C145.323 118.022 145.329 119.009 145.467 120.002C145.563 120.694 145.684 121.392 145.846 122.084C139.528 128.643 117.347 137.248 115.926 132.091C115.162 129.305 114.181 125.694 113.339 121.855C116.035 116.572 118.574 113.256 118.574 113.256Z" fill="#4E7C39"/>
<path d="M152.219 114.562C150.413 113.587 148.777 112.359 147.302 110.957C146.923 104.013 143.716 94.2642 143.716 94.2642C146.761 96.2199 150.359 107.01 150.359 107.01C152.303 101.618 147.928 94.2883 147.928 94.2883C151.641 97.2189 152.02 100.968 152.02 100.968C154.187 100.149 153.224 82.8667 153.224 82.8667C155.216 85.1534 157.936 96.1597 157.936 96.1597C160.24 93.6684 156.786 85.1895 156.786 85.1895C159.964 88.5354 162.497 94.7516 162.497 94.7516C163.165 93.8369 162.786 91.6826 161.841 88.9626C162.858 91.2253 163.538 93.506 163.851 95.7325C165.422 107.088 152.219 114.562 152.219 114.562Z" fill="#4E7C39"/>
</svg>
