<svg width="24" height="24" viewBox="0 0 24 24" fill="none" xmlns="http://www.w3.org/2000/svg">
<path fill-rule="evenodd" clip-rule="evenodd" d="M21.8276 5.38006C22.5317 9.37005 19.2458 12.9689 15.2558 12.7342C16.5076 10.3871 18.3852 8.19652 20.967 6.16241C18.4635 7.64888 16.2729 9.60475 14.5517 12.1865C14.2388 8.11829 17.7594 4.75418 21.8276 5.38006ZM11.8135 0.0600791C12.2829 2.95478 9.85761 5.4583 6.96292 5.22359C7.11939 5.92771 7.51056 6.78829 8.52762 7.72711C9.07526 8.35299 11.1094 9.37005 11.97 9.91769C13.0653 10.7 14.0041 11.4824 14.4735 12.6559C15.7252 10.7783 17.1335 9.13534 18.9329 7.72711C17.2117 9.37005 15.7252 11.2477 14.7082 13.36C14.8647 14.0641 14.8647 14.8465 14.63 15.7853C14.2388 17.1153 13.6911 18.2106 13.0653 19.2277C16.1947 19.6971 18.5417 21.6529 18.5417 24H11.5788H4.61587C4.61587 21.34 7.74527 19.1494 11.5788 19.1494L11.7353 18.8365C10.7964 16.8806 9.3882 15.0812 7.8235 13.5165C9.54467 14.8465 10.9529 16.4894 12.0482 18.3671C12.5958 17.4283 13.0653 16.5677 13.3782 15.4724C13.9258 13.36 12.7523 12.03 11.2658 11.013C10.0141 10.1524 8.91879 9.60475 7.8235 8.50946C6.96292 7.64888 6.41527 6.47535 6.33704 5.30183C3.52058 5.38006 1.25176 2.87654 1.72117 0.0600791C4.06822 -0.331096 6.18057 1.2336 6.72821 3.42419C7.27586 1.2336 9.3882 -0.331096 11.8135 0.0600791ZM4.61587 10.9347C3.98999 14.9247 7.19762 18.5235 11.2658 18.2888C10.0141 15.9418 8.05821 13.7512 5.47645 11.7171C8.05821 13.1253 10.1706 15.1594 11.8917 17.7412C12.2829 13.673 8.68409 10.3089 4.61587 10.9347ZM17.5246 20.6359C19.7152 20.323 23.1576 21.34 23.1576 24H19.0893C19.0893 22.5918 18.4635 21.4965 17.5246 20.6359ZM4.06822 24H0C0 21.34 3.44234 20.323 5.63292 20.6359C4.6941 21.4965 4.06822 22.5918 4.06822 24Z" fill="#2E8B57"/>
</svg>
