<svg width="18" height="18" viewBox="0 0 18 18" fill="none" xmlns="http://www.w3.org/2000/svg">
<path d="M17.8463 17.1067L12.9744 12.2347C14.102 10.9365 14.7868 9.24401 14.7868 7.39349C14.7868 3.31686 11.4701 0 7.39328 0C3.31644 0 0 3.31707 0 7.3937C0 11.4703 3.31644 14.787 7.39328 14.787C9.24359 14.787 10.936 14.1022 12.2341 12.9746L17.1065 17.8467C17.2086 17.9489 17.3426 18 17.4766 18C17.6104 18 17.7444 17.9489 17.8463 17.8467C18.0509 17.6424 18.0509 17.311 17.8463 17.1067ZM1.04679 7.39349C1.04679 3.89386 3.89386 1.04679 7.39328 1.04679C10.8929 1.04679 13.74 3.89406 13.74 7.39349C13.74 10.8929 10.8929 13.74 7.39328 13.74C3.89386 13.74 1.04679 10.8929 1.04679 7.39349Z" fill="#626262"/>
</svg>
