<svg width="97" height="140" viewBox="0 0 97 140" fill="none" xmlns="http://www.w3.org/2000/svg">
<path d="M50.8891 106.88L49.4957 106.041C49.5093 106.018 49.7998 105.469 49.4548 104.574C49.0009 103.394 47.19 101.052 40.1548 98.6014L40.6904 97.0627C46.6181 99.1234 50.0948 101.493 51.0162 104.098C51.579 105.696 50.9617 106.762 50.8891 106.88Z" fill="#459B06"/>
<path d="M55.1965 108.201C54.9333 107.588 48.9284 92.8462 60.2936 66.7025L61.7869 67.3516C50.7258 92.7872 56.6308 107.42 56.6944 107.566L55.1965 108.201Z" fill="#459B06"/>
<path d="M70.2565 33.1697C70.2565 33.1697 71.8541 45.42 72.2036 54.1119C72.8754 70.7376 61.7916 74.2007 57.0621 77.0375C50.7532 64.8961 55.9002 53.9122 62.0957 45.4109C68.2866 36.9097 69.5484 36.3242 70.2565 33.1697Z" fill="#2C5900"/>
<path d="M72.2035 54.1164C71.559 45.4155 70.2564 33.1743 70.2564 33.1743C70.2745 39.7555 66.0988 61.4148 58.3919 74.7272C58.0106 75.3899 57.407 76.3703 57.062 77.042C62.2817 74.5547 73.4154 70.4062 72.2035 54.1164Z" fill="#2C5900"/>
<path d="M0 93.6632C0 93.6632 11.4333 85.6294 19.9572 83.8729C36.2561 80.5142 44.3761 92.5194 45.4291 99.5682C34.4724 107.761 27.8457 100.644 18.4503 95.9099C9.05041 91.1804 3.45404 92.7826 0 93.6632Z" fill="#377705"/>
<path d="M18.4458 95.9099C27.764 100.603 34.3589 107.634 45.1522 99.7634C42.0386 96.2186 35.1123 94.807 22.8847 91.9521C17.0705 90.5949 8.33328 91.707 0.449339 93.35C0.163393 93.5452 0 93.6587 0 93.6587C3.45404 92.7827 9.05041 91.1805 18.4458 95.9099Z" fill="#2C5900"/>
<path d="M96.1957 72.8617C96.1957 72.8617 82.2388 72.1446 74.0916 75.1902C58.5053 81.0226 58.0151 95.5059 60.8791 102.033C74.5137 103.14 76.3383 93.586 81.7758 84.581C87.2133 75.576 92.8006 73.9556 96.1957 72.8617Z" fill="#2C5900"/>
<path d="M81.7757 84.581C76.3836 93.5134 74.5408 102.977 61.2148 102.055C61.9637 97.3941 67.079 92.5149 75.9116 83.5915C80.11 79.3477 88.1028 75.6395 95.6509 72.8391C96.0004 72.8527 96.1955 72.8617 96.1955 72.8617C92.8005 73.9556 87.2132 75.576 81.7757 84.581Z" fill="#2C5900"/>
<path d="M22.8801 74.7317C22.8801 74.7363 22.8846 74.7408 22.8892 74.7408C28.2268 82.829 31.2451 90.9535 43.913 88.97C46.2823 82.248 44.7209 67.8373 28.7443 63.1804C21.3687 61.029 9.69481 62.1411 7.07137 62.4315C7.04414 62.4361 7.02599 62.4361 7.00329 62.4406C6.70373 62.4724 6.53125 62.4951 6.53125 62.4951C9.99891 63.3348 15.6951 64.5375 21.7817 73.1159C21.9723 73.3837 22.1584 73.6515 22.34 73.9193C22.3627 73.9511 22.3854 73.9829 22.4035 74.0146C22.5624 74.2552 22.7212 74.4912 22.8801 74.7317Z" fill="#2C5900"/>
<path d="M54.2664 104.397L52.6415 104.302C52.6551 104.062 53.9532 80.1647 44.7803 68.0642L46.0784 67.0793C55.6144 79.6609 54.3254 103.394 54.2664 104.397Z" fill="#459B06"/>
<path d="M29.0767 25.8849C29.0767 25.8849 40.0061 37.1821 47.0685 45.8285C60.5761 62.368 53.4683 74.8543 51.4894 81.5808C36.484 74.1916 32.4989 58.7596 31.3688 45.0342C30.2386 31.3088 30.9013 29.6885 29.0767 25.8849Z" fill="#377705"/>
<path d="M47.0632 45.8285C39.7285 37.409 29.0713 25.8849 29.0713 25.8849C34.2047 32.6341 47.3355 58.2467 50.8622 78.1313C51.0392 79.1208 51.2661 80.6141 51.484 81.5808C54.171 74.8225 60.7886 61.5873 47.0632 45.8285Z" fill="#459B06"/>
<path d="M54.2027 107.32C54.0757 106.953 51.1209 98.143 51.4568 83.2693C51.7699 69.5847 55.0878 48.0208 69.1355 22.9801L70.5561 23.7789C56.6946 48.4883 53.4085 69.7436 53.0907 83.2239C52.7458 97.8298 55.7142 106.708 55.746 106.799L54.2027 107.32Z" fill="#459B06"/>
<path d="M53.1405 108.882C53.0633 108.537 51.2115 100.29 53.2449 87.5312C55.1148 75.7938 60.7974 57.9063 77.2507 39.338L78.4716 40.4182C62.3089 58.6598 56.717 76.1978 54.8697 87.6991C52.8681 100.167 54.7109 108.428 54.729 108.51L53.1405 108.882Z" fill="#459B06"/>
<path d="M48.1612 108.187L46.7814 107.325C46.8314 107.243 51.9012 98.9645 52.986 84.1589C53.9891 70.4789 51.7015 48.2749 35.103 20.1615L36.5055 19.3354C53.3491 47.8664 55.6457 70.4652 54.6018 84.3949C53.4626 99.5636 48.3745 107.842 48.1612 108.187Z" fill="#459B06"/>
<path d="M87.1 46.8504C87.1 46.8504 84.9078 62.414 82.4296 73.3026C77.6865 94.1268 63.4709 96.1965 56.9532 98.77C53.5536 82.3939 63.2803 69.7669 73.4064 60.4351C83.5371 51.0987 85.221 50.6267 87.1 46.8504Z" fill="#377705"/>
<path d="M82.4297 73.2975C84.5629 62.3407 87.1001 46.8452 87.1001 46.8452C84.9351 55.0378 72.8028 81.1451 59.2908 96.1504C58.619 96.8993 57.5796 97.9977 56.9487 98.7648C63.934 96.7269 78.4401 93.8129 82.4297 73.2975Z" fill="#459B06"/>
<path d="M30.4102 61.3785C30.4102 61.3785 31.4904 73.6878 33.02 82.248C35.9475 98.6286 47.517 99.6226 52.7457 101.37C56.2905 88.1576 48.8968 78.5398 41.0174 71.5682C33.138 64.6011 31.7763 64.3015 30.4102 61.3785Z" fill="#377705"/>
<path d="M33.02 82.248C31.7763 73.6106 30.4102 61.3785 30.4102 61.3785C31.8081 67.81 40.5544 88.0623 50.9483 99.4002C51.4658 99.9631 52.2691 100.794 52.7457 101.375C47.113 100.072 35.3484 98.4198 33.02 82.248Z" fill="#459B06"/>
<path d="M81.7034 71.4327C81.7034 71.4327 67.8645 73.3707 60.439 77.905C46.237 86.5832 48.5019 100.899 52.546 106.767C66.1443 105.274 66.1261 95.5429 69.7572 85.671C73.3928 75.799 78.5761 73.1484 81.7034 71.4327Z" fill="#5AB502"/>
<path d="M69.7615 85.6703C66.1577 95.4606 66.1396 105.101 52.8817 106.721C52.7364 102.001 56.835 96.2458 63.8157 85.8065C67.1336 80.8455 74.2822 75.6894 81.1631 71.5092C81.508 71.4547 81.7032 71.4275 81.7032 71.4275C78.5759 73.1477 73.3926 75.7984 69.7615 85.6703Z" fill="#459B06"/>
<path d="M66.376 29.9063C66.376 29.9063 58.7326 17.8058 67.8284 12.6497C76.9197 7.4936 80.587 5.45567 81.2633 2.60529C82.6204 8.85071 86.424 27.5098 66.376 29.9063Z" fill="white"/>
<path d="M71.2232 21.3325C67.4923 19.0267 65.4816 20.924 63.6479 22.9755C64.3878 26.7473 66.3803 29.9018 66.3803 29.9018C68.6497 29.6294 70.6105 29.1483 72.308 28.5038C73.7605 27.0151 73.411 22.6896 71.2232 21.3325Z" fill="#FFFFCA"/>
<path d="M68.0465 29.4842C67.7605 30.0697 66.9799 30.2785 66.2991 29.9472C65.6182 29.6158 65.3005 28.876 65.5819 28.2905L71.1284 16.8799C71.4143 16.2944 72.195 16.0856 72.8713 16.4169C73.5521 16.7483 73.8698 17.4881 73.5884 18.0736L68.0465 29.4842Z" fill="#FBDE16"/>
<path d="M76.1754 42.1021C76.1754 42.1021 71.1328 28.7081 81.0773 25.4946C91.0219 22.2766 95.0206 21.0238 96.2597 18.3686C96.3278 24.7502 96.2915 43.7997 76.1754 42.1021Z" fill="white"/>
<path d="M82.6476 34.6812C79.4568 31.6674 77.1102 33.1243 74.8953 34.7674C74.859 38.6118 76.1752 42.1021 76.1752 42.1021C78.4537 42.2928 80.4735 42.2202 82.2663 41.9251C83.9911 40.7587 84.5176 36.4513 82.6476 34.6812Z" fill="#FFFFCA"/>
<path d="M77.8955 42.0204C77.5007 42.5379 76.6928 42.5832 76.0936 42.1203C75.4945 41.6573 75.3311 40.8676 75.726 40.3501L83.4601 30.2921C83.855 29.7747 84.6629 29.7293 85.2621 30.1923C85.8612 30.6552 86.0246 31.445 85.6297 31.9624L77.8955 42.0204Z" fill="#FBDE16"/>
<path d="M40.4865 27.5597C40.4865 27.5597 26.1801 27.1739 26.9563 16.7528C27.7324 6.32712 28.0774 2.1514 26.0894 0C32.0261 2.34657 49.6504 9.57238 40.4865 27.5597Z" fill="white"/>
<path d="M36.0566 18.768C32.0625 20.5836 32.5254 23.3114 33.2108 25.9757C36.7556 27.4599 40.4865 27.5597 40.4865 27.5597C41.5259 25.5218 42.2158 23.6246 42.6243 21.8545C42.1931 19.8165 38.4032 17.7014 36.0566 18.768Z" fill="#FFFFCA"/>
<path d="M41.0632 25.9394C41.39 26.5022 41.1267 27.2647 40.4777 27.646C39.8241 28.0272 39.0298 27.882 38.703 27.3192L32.3078 16.3625C31.981 15.7997 32.2442 15.0371 32.8978 14.6559C33.5514 14.2746 34.3457 14.4199 34.6725 14.9827L41.0632 25.9394Z" fill="#FBDE16"/>
<path d="M74.6183 108.855C74.6183 113.28 65.5452 116.87 54.357 116.87C43.1643 116.87 34.0957 113.28 34.0957 108.855C34.0957 104.429 43.1688 100.839 54.357 100.839C65.5452 100.839 74.6183 104.425 74.6183 108.855Z" fill="#8A5D33"/>
<path d="M70.8099 140C59.8758 140 48.9418 140 38.0078 140C35.6068 128.689 33.2057 117.383 30.8047 106.072C46.5408 106.072 62.2769 106.072 78.0085 106.072C75.6165 117.383 73.2109 128.694 70.8099 140Z" fill="#E08D53"/>
<path d="M54.6339 106.072H30.8096C33.2106 117.383 35.6116 128.689 38.0127 140H54.6384V106.072H54.6339Z" fill="#CC7C3A"/>
<path d="M30.8096 106.072C32.6614 114.787 34.5087 123.506 36.3605 132.22C44.8254 119.267 60.9428 112.018 76.6789 112.372C77.1237 110.271 77.5731 108.174 78.0179 106.072C62.2772 106.072 46.5457 106.072 30.8096 106.072Z" fill="#CECECE"/>
<path d="M78.8166 105.482H29.8926V111.669H78.8166V105.482Z" fill="#E08D53"/>
<path d="M54.5565 105.482H29.8926V111.669H54.5565V105.482Z" fill="#CC7C3A"/>
</svg>
